<svg xmlns="http://www.w3.org/2000/svg" width="647" height="143" fill="none"><path fill="#EDE1D1" fill-rule="evenodd" d="M374.896.242c-.231.16-15.494.482-33.879.724-18.501.241-33.995.482-34.689.482-.578 0-2.197-.08-3.469-.16-1.272-.161-11.101.08-21.97.402-10.753.402-26.363.804-34.689 1.045-8.209.161-18.616.483-23.126.724-4.393.241-12.256.644-17.344.885-5.088.16-12.372.563-16.188.804-3.816.242-7.979.322-9.25.322-4.857-.16-7.054-.16-8.673-.08-1.503.08-1.503.16 0 .884 1.041.483 1.157.805.347.805-.694 0-1.734-.322-2.081-.805-.347-.402-1.85-.724-3.353-.643-2.082.16-2.544.563-2.197 1.85.308 1.019-.077 1.072-1.157.16-1.85-1.608-5.55-1.769-7.516-.401-.925.643-1.734.643-3.006-.08-1.041-.644-1.85-.644-2.313-.162-.462.483-1.618.563-2.659.322-1.272-.322-1.619-.241-1.041.402.463.563.232.965-.347.965-.693 0-1.272-.321-1.272-.724 0-.965-4.74-.884-6.59.08-.81.484-2.197.484-3.469.081-1.157-.402-2.544-.724-3.238-.643-7.053.643-18.038 1.448-20.466 1.448-1.85 0-3.238.241-3.238.482 0 .483-7.747.966-14.107.885-2.544 0-3.237.322-3.237 1.77v1.77l-2.313-1.77c-1.85-1.368-3.238-1.69-5.55-1.287-1.735.321-3.585.804-4.163 1.126-.462.402-2.775.482-4.856.241-2.544-.322-3.932-.16-3.932.483 0 .482-.81.884-1.734.884-.925 0-1.735-.402-1.735-.884 0-.644-.578-.644-1.734.08-.925.563-1.388 1.367-.925 1.85.578.644.925.644 1.156 0 .347-.643 1.388-.724 3.238-.241 1.619.402 3.122.402 3.469.08.81-.965 10.985-.885 10.985.08 0 .322.809.644 1.734.644.925 0 1.734-.402 1.734-.885 0-.482 1.041-.643 2.313-.321 1.388.321 4.163.643 6.36.804 3.122.16 4.047-.08 4.047-1.046 0-1.045.23-1.126.925-.321 1.04 1.126 4.856.482 6.244-.966.578-.563.925-.563.925.161s2.775.965 10.985.885c6.128-.08 10.637-.402 10.291-.804-.694-.805 2.89-.563 5.087.321.81.403 1.388.242 1.388-.321s1.503-.805 4.047-.563c2.197.16 4.047.08 4.047-.242 0-.321.809-.804 1.85-1.045.925-.242 1.503-.161 1.156.241s0 1.126.925 1.609c1.272.724 1.735.563 2.313-.885.462-1.367.925-1.609 1.619-.804.809.724 1.734.804 4.047.24 2.197-.562 3.122-.562 3.122 0 0 .484 1.04.644 2.312.323 1.157-.242 4.047-.161 6.36.321 3.122.563 4.394.483 5.666-.321 1.156-.885 1.85-.885 3.006-.161 1.156.804 1.388.643.81-.483-.925-1.689.693-1.77 3.122-.16 2.197 1.527 4.047 1.527 6.706-.162 1.156-.724 2.081-.965 2.081-.482 0 1.045 18.848.965 19.889-.161.578-.483.925-.483.925.16 0 .564.578 1.046 1.272 1.046.578 0 .809-.321.462-.804-.347-.483.116-.563 1.041-.322 1.041.242 1.85.805 1.85 1.207 0 .322.809.483 1.85.16 1.041-.24 2.313 0 3.006.644.81.805.925.644.347-.724-.693-1.77.925-2.493 2.313-.965.462.483 1.156.644 1.734.402 1.388-.643 23.82-.724 25.208-.08.693.241 2.081.241 3.122-.08 1.503-.322 1.85-.162 1.503.643-.347.724-1.85 1.046-4.394.885-2.081-.161-4.163.08-4.51.482-.347.402-2.081.965-3.816 1.287-2.428.402-3.237.241-3.237-.724 0-.804-1.041-1.206-3.122-1.126l-3.238.08 2.891.644c2.659.563 2.659.644.347.724-1.388.08-2.891.483-3.238.885-.462.482-1.503.563-2.659.08-1.041-.322-2.775-.482-3.7-.241-1.504.402-1.504.241-.116-.885 1.272-1.206 1.272-1.367-.231-1.367-1.041 0-2.082.643-2.428 1.448-.579 1.126-1.619 1.367-4.626 1.126-2.081-.161-4.278.08-4.625.563-.578.563-1.619.563-3.7-.08-1.85-.564-3.238-.644-3.7-.162-.463.403-6.475.724-13.529.724-7.053 0-14.569.322-16.766.805-4.51.965-9.713-.08-8.672-1.77.231-.563 0-1.046-.578-1.046-.694 0-1.157.563-1.157 1.207 0 .804-1.156 1.207-3.7 1.126-2.081 0-27.867.16-57.121.322l-53.42.322-4.395 2.332c-2.312 1.287-4.625 2.333-4.972 2.333-.347 0-.578.241-.347.563.116.402-.231.643-.925.643-.578 0-1.156.402-1.156.885 0 .402.463.644 1.04.402.579-.322.81.242.463 1.046-.347.804 0 2.252.694 3.137.925 1.206.925 1.689-.116 1.93-1.04.242-.925.724.463 1.69 2.312 1.608 3.7 1.769 2.544.321-.463-.482-.347-.643.23-.322 2.66 1.77-1.04 7.802-4.855 7.802-2.082 0-3.238 3.057-1.735 4.344.694.563.925 1.287.462 1.609-.462.24-.925 1.206-1.156 2.09-.347 1.85 3.7 3.781 4.972 2.334.463-.644 1.041-.563 1.735.16 1.503 1.61 1.272 2.333-.694 2.333-.81 0-2.081.483-2.544 1.126-.462.644-1.966 1.207-3.237 1.448-1.85.241-2.313.885-2.429 3.7 0 1.85.463 3.378 1.157 3.378.578 0 .693.242.347.483-1.157.804 1.387 3.539 3.237 3.539 3.469 0 1.272 2.091-2.197 2.252-.578 0-1.387.402-1.85.885-.925 1.206 1.388 9.41 3.122 10.617.81.563 6.244.965 13.413 1.126 6.707.08 12.72.483 13.413.724.694.322 1.272.241 1.272-.241 0-.483 1.388-.644 3.353-.402 1.85.321 3.7.08 4.047-.403.463-.482 0-.884-1.04-.884-1.041 0-1.503-.402-1.157-.805 1.388-1.528 3.816-.804 5.32 1.529 1.156 1.85 1.85 2.171 3.006 1.528 1.04-.563 1.503-.563 1.503 0 0 .483 2.544.724 6.706.643 3.585-.16 7.516 0 8.673.242 2.081.563 2.081.643.23 1.689-1.04.643-3.121 1.528-4.509 2.01-1.85.644-2.428 1.61-2.543 4.264-.116 1.85.23 3.62.693 3.78.463.241.578 1.287.231 2.494l-.578 2.09 6.013-.482c5.55-.482 6.013-.402 5.319 1.046-.925 2.172 3.353 2.735 5.897.804 1.156-.885 1.388-1.528.694-1.528-.809 0-1.388-.322-1.388-.724 0-.402.925-.643 2.082-.483 1.04.161 2.544.322 3.353.322.694.08 2.197.644 3.122 1.368 1.041.643 1.85.884 1.85.402 0-.965 2.544-.805 3.585.241.462.322 2.197 0 4.047-.804 1.734-.885 2.89-1.046 2.428-.563-.694.724-.231 1.045 1.156 1.126 1.156 0 5.782.08 10.176.241 8.903.241 12.141.885 12.141 2.574 0 1.528 1.156 1.448 3.006-.322 1.272-1.126 1.503-1.126 1.503-.161 0 2.011-2.544 3.62-5.897 3.781-4.047.241-3.469.161-25.785 1.528-25.092 1.528-60.243 4.504-64.175 5.47-.925.241-4.625.563-8.094.804-8.094.563-27.173 3.298-34.689 4.987-3.931.885-5.666 1.689-5.319 2.413.347.643 0 .885-.925.643-.925-.241-1.965 0-2.428.403-.347.482-1.156.724-1.734.482-1.62-.724-6.244 5.228-4.857 6.194.694.482.925 1.93.578 3.137-.347 1.367-.115 2.332.579 2.332.578 0 1.387.644 1.618 1.448.347.804 1.272 1.528 2.197 1.609.925.08 5.32.643 9.713 1.206 4.51.563 8.325.805 8.441.402.231-.402 1.735-.16 3.122.483 1.735.804 3.006.965 3.469.483.347-.483 1.272-.805 1.85-.805.694 0 .925.242.694.563-.347.402 2.081.724 5.203.885 4.51.161 6.129-.08 7.285-1.206.81-.805 1.966-1.207 2.428-.805.463.322.231.563-.462.563-.81 0-1.388.483-1.388 1.046 0 .804 3.238 1.126 13.644 1.206 7.4.081 14.8.322 16.304.564 3.816.482 8.325-.403 7.516-1.529-.347-.482.116-.241 1.04.563 1.504 1.287 3.238 1.448 11.448 1.287 5.203-.08 10.522-.482 11.563-.885 1.156-.402 2.197-.321 2.659.161.694.724 10.176.402 12.257-.482.578-.242 1.041-.161 1.041.241 0 .322 4.625.724 10.291.724 9.597.161 10.407 0 11.1-1.609.694-1.448.925-1.528 1.388-.241.231.804 1.387 1.287 2.428 1.206 2.66-.321 3.932-1.689 2.197-2.413-3.006-1.287.694-1.608 3.931-.321 1.851.804 4.163 1.206 5.088.965 1.156-.241 1.388 0 1.041.965-.347.724.462 0 1.734-1.609 1.735-2.171 3.007-2.895 4.394-2.493 1.157.322 1.619.161 1.041-.402-.81-.885 1.272-2.252 2.428-1.528.925.723-2.428 3.378-4.278 3.378-.925 0-1.85.804-2.082 1.769-.231 1.046.232 1.85.926 1.85.809 0 1.156-.563.693-1.206-.462-.965-.231-1.046 1.503-.402 1.619.563 2.429.482 2.776-.242.346-.724.925-.724 2.081-.08 2.197 1.126 9.597 1.448 8.557.322-.347-.403-.116-.805.693-.805.925 0 .925-.321-.231-1.287-1.388-1.126-1.619-1.045-2.544.644-.694 1.126-1.272 1.448-1.619.804-.347-.724-1.04-.804-1.965-.241-1.041.643-1.504.482-1.504-.563 0-1.609 4.394-4.505 5.319-3.539.347.402 1.619.884 2.776 1.206 1.04.242 1.965 1.046 1.965 1.77 0 .643.578 1.206 1.157 1.206.693 0 1.156-.724 1.156-1.608 0-1.046.578-1.448 1.734-1.126 1.157.321 1.388.804.694 1.447-.694.644-.231.885 1.735.966 1.503.08 2.775-.242 2.775-.644 0-.483.809-.402 1.734.161 1.388.804 1.503 1.206.463 1.689-.81.322.693.483 3.353.483 4.163-.161 4.741-.403 4.163-1.689-.579-1.207-.347-1.448 1.156-1.046 1.04.322 1.85.161 1.85-.241 0-.483-.463-.805-1.156-.805-.579 0-1.157-.563-1.157-1.206 0-1.85 1.388-1.448 5.204 1.608 3.122 2.494 6.359 3.942 4.74 2.092-.925-1.046 2.66-1.77 4.857-1.046 2.659.885 6.706.563 8.903-.643 3.122-1.77.579-2.413-3.469-.805-3.237 1.287-4.047 1.368-4.047.402 0-.965-.578-.965-3.122-.321-3.584.884-6.128.482-6.128-1.126 0-.805.925-1.046 2.891-.724 1.619.161 2.891 0 2.891-.483s1.503-.804 3.468-.724c1.851.081 3.469.322 3.469.563 0 .563 6.013.322 8.441-.402 1.157-.322 2.775-.161 3.816.483 1.619.884 2.081.884 3.238-.322 1.156-.965 1.85-1.046 2.775-.402 1.04.724 2.081.724 4.162 0 1.851-.563 3.238-.644 3.585-.161.462.482.231.804-.347.804-1.272 0-1.041 3.7.231 4.585.579.322.694.241.347-.241-.462-.563.232-1.126 1.619-1.368 1.735-.321 2.197-.161 1.735.644-.463.885 0 .965 1.965.482 1.388-.321 3.238-.482 4.163-.241 1.387.322 1.387.241 0-.885-.925-.643-1.735-.884-1.966-.482-.231.402-.925.724-1.503.724-.694 0-.809-.403-.347-.966.463-.482.347-.643-.462-.321-1.966.804-2.66-.724-.925-2.413 1.503-1.368 1.965-1.368 4.625-.322 1.965.643 2.659 1.367 1.965 1.85-.693.482-.578 1.206.463 1.85 1.966 1.367 7.516.161 7.516-1.609 0-.563.809-1.367 1.734-1.609 1.041-.241 1.735-.08 1.619.564-.347 1.93.116 2.976 1.388 2.976.578 0 .809-.483.347-1.046-.463-.483.115-.402 1.387.322 1.156.643 2.891 1.126 3.7 1.045.694-.08 2.197-.161 3.122-.241.925 0 1.735-.643 1.735-1.287 0-1.609 1.85-1.528 2.775.081.578 1.126.809 1.126 2.544 0 1.965-1.448 4.509-1.77 3.353-.483-.347.402.347.804 1.619.804s2.544-.321 2.891-.643c.578-.724 5.434-.724 7.168 0 .579.241 4.048.482 7.748.563 4.741.08 6.822-.241 7.284-1.046.347-.643 1.504-.965 2.544-.804 1.041.161 3.585 0 5.435-.402 2.235-.483 2.428-.778.578-.885-1.619-.081-4.047-.161-5.435-.241-1.85 0-2.659-.483-2.659-1.448 0-.885.809-1.529 1.85-1.529.925 0 1.388.322 1.041.805-.81.885 2.081 1.126 3.237.241.694-.482 10.176-.643 12.951-.241 2.197.322 3.931 0 5.666-1.287 1.734-1.126 1.965-1.126 2.543 0 .81 1.367 3.469 1.769 4.163.563.231-.402 1.272-.322 2.428.322 1.85.884 1.85 1.126.232 2.252-.925.724-1.735 1.528-1.735 1.93.116.322 1.272-.402 2.775-1.689 2.313-1.93 3.007-2.091 5.088-1.367 1.966.724 2.313.724 1.966-.161-.463-.644.347-1.046 1.965-1.126 1.504-.081 2.082.08 1.504.402-2.429 1.206-1.388 2.172 2.428 2.252 2.544 0 4.047-.402 4.509-1.206.347-.885 2.197-1.368 5.435-1.529 2.775-.08 5.203-.563 5.319-.965.462-.965 3.7-1.046 3.7-.161 0 .965-5.666 2.735-6.938 2.172-.578-.241-1.619.322-2.312 1.207-1.041 1.447-.925 1.608 1.734 1.608 1.735 0 2.775-.322 2.313-.724-.347-.482.347-1.206 1.619-1.689 1.503-.563 2.543-.563 3.006 0 .347.402 1.272.805 1.966.805.809 0 .693-.403-.116-1.127-1.503-1.287.231-2.573 2.197-1.689.694.322 1.041.081.925-.482-.347-1.046 8.094-1.609 9.019-.563.347.402 1.735.241 3.122-.322 4.163-1.609 6.707-1.448 5.897.322-.578 1.367-.347 1.447 1.735.724 1.387-.563 2.428-.724 2.428-.403 0 .242.694.161 1.503-.321.925-.563 1.85-.483 2.891.321 1.387 1.046.925 1.448-1.157 1.207-.578 0-.925.483-.925 1.126 0 1.448 3.007 1.609 3.816.161.347-.563.694-.402.694.402.116 1.528 2.197 1.77 6.707.965l2.659-.482-2.313-2.253c-3.006-2.976-2.89-3.458.81-2.815 2.775.483 2.891.402 1.387-.884-1.503-1.287-1.387-1.287 1.272-.242 2.082.805 7.632 1.126 20.235 1.126 16.998 0 17.345 0 18.617 1.931l1.387 1.85.81-1.77c.462-.965 1.04-1.528 1.387-1.287.463.242 1.388-.161 2.313-.965.925-.724 1.272-.885.809-.241-.693.884-.347 1.045 1.388.482 1.156-.321 3.353-.563 4.741-.563 1.387.081 2.891-.241 3.237-.643 1.157-1.287 2.891-.965 2.197.402-.462.643-.115 1.206.578 1.206.694 0 1.272-.321 1.272-.723 0-.403 1.272-.644 2.891-.483 1.619.08 2.891-.161 2.891-.644 0-.402.809-.241 1.966.322 1.272.805 1.965.885 2.312.242.231-.564 1.388-.805 2.544-.564 1.041.161 2.66-.241 3.469-.884.925-.724 2.081-1.287 2.775-1.287s.231.482-.925 1.126c-2.081 1.045-2.081 1.126.578.885 1.619-.161 3.932-.563 5.088-.885 1.619-.402 1.966-.322 1.387.322-1.272 1.447 3.007 1.206 6.129-.403 1.619-.724 2.428-.884 1.965-.402-.578.644.463.885 3.354.805 2.428-.081 4.625-.644 5.203-1.368.578-.724 1.156-.885 1.156-.402 0 .563 2.197.885 5.319.804 7.748-.08 3.585-1.769-4.972-2.011-3.7-.08-8.556-.482-10.753-.884-2.197-.402-9.251-.805-15.61-.805-6.36-.08-13.529-.482-15.842-.884-3.353-.563-5.203-.483-7.862.482-2.891 1.046-3.354 1.046-2.775 0 .578-.885-.116-1.045-3.238-.724-4.625.483-3.816.563-16.535-.321-5.666-.322-12.026-.403-14.107-.081-2.081.322-3.931.322-4.278.081-.81-.564-8.557-.564-9.366 0-.347.241-2.544.16-4.972-.081-2.313-.322-7.054-.322-10.407-.08-3.353.321-6.244.321-6.591.161-.462-.322-15.147-.483-17.344-.161-.578.08-1.619.08-2.313 0-1.041-.161-9.713 0-24.282.402-5.897.161-43.592.965-72.847 1.528-8.903.161-16.188.322-16.188.402 0 .322-30.989.885-50.068.965-10.869.081-20.119.322-20.466.644-.231.322-4.51.483-9.366.322-6.475-.242-9.25 0-9.828.724-.579.563-1.041.643-1.041.16 0-.482-3.007-.723-8.325-.563-4.626.081-16.882.242-27.289.242-14.454 0-18.616.241-17.923 1.045.578.724.347.724-.925.081-.925-.483-8.556-.805-19.541-.724-9.829.08-18.963-.161-20.235-.483-1.735-.482-1.157-.643 2.312-.724 3.47 0 4.163-.241 2.891-.804-1.04-.483-1.156-.804-.347-.804.694 0 1.735.321 2.082.804.346.402 1.965.804 3.584.804 2.081 0 2.775-.482 2.891-1.85 0-1.689.115-1.689 1.04-.16.694 1.045 1.041 1.206 1.041.402.116-1.046.347-1.046 1.156-.081.925.965 2.082 1.046 5.435.402 4.394-.723 6.36-2.332 3.7-2.976-.809-.161-.578-.241.578-.161 2.313.322 2.66-.884.578-1.528-.809-.241.579-.322 3.122-.241 3.701.161 4.741.483 4.972 1.85.232 1.287.926 1.609 2.66 1.367 2.544-.482 2.775-1.126.809-2.493-1.734-1.207-.693-1.931 1.735-1.287 1.04.241 1.734 1.206 1.619 2.172-.116 1.206.347 1.689 1.503 1.447.925-.241 2.891-.402 4.278-.402 1.619-.08 2.775-.724 3.238-1.93.347-.965 1.387-1.77 2.197-1.77.925 0 2.428-.563 3.353-1.206 1.503-.965 1.734-.805 2.428 1.448l.81 2.573 1.387-2.01c1.041-1.448 2.428-2.011 4.625-2.011 1.735.08 3.122-.161 3.122-.483 0-.322 1.157-.402 2.429-.161 1.734.322 3.122 0 4.047-.965.925-.885 1.618-1.126 1.618-.643 0 .482.81 1.126 1.735 1.367 1.156.322 1.734.08 1.503-.724-.231-.563.231-1.046.809-.965.694.08 1.041.402.81.724-.347.885.694.804 3.237-.161 2.544-.965 8.095.241 8.095 1.689 0 .643-.463.724-1.504 0-1.156-.643-1.618-.563-1.618.241 0 .644 1.04 1.368 2.196 1.529 1.966.402 2.544-.242 2.082-2.574-.116-.724.462-.966 1.619-.644.925.241 2.081.161 2.544-.322.346-.482 2.428-.643 4.625-.482 2.197.241 4.047 0 4.394-.563.347-.563 1.156-.402 2.197.482 1.734 1.529 3.7 2.011 2.543.644-.346-.483-.115-.804.579-.804.693 0 1.156.643.925 1.367-.232 1.046.693 1.448 4.047 1.609 2.659.161 4.162 0 3.815-.483-.462-.402-.231-1.046.463-1.287.694-.322 1.041-.241.925.161-.231.322.231.724.809.885.694.08 1.157-.483 1.272-1.368.116-.804.463-1.85.925-2.413 1.157-1.287 3.007-.321 2.197 1.126-.347.724.116 1.207 1.272 1.207 1.041 0 1.85-.563 1.85-1.287 0-.644.578-.965 1.272-.644.694.242 1.735.081 2.197-.482.578-.563 2.428-1.126 4.278-1.287 2.66-.241 3.354.08 3.469 1.367.347 3.057 2.544 2.816 4.163-.402.116-.402 1.734-.724 3.469-.724 1.734 0 2.775-.241 2.428-.643s0-.724.694-.724c.809 0 1.041.563.694 1.287s-.694 1.367-.694 1.528c0 .161-1.272.161-2.891-.08-2.081-.242-2.659-.081-2.197.804 1.041 1.93 4.741 2.333 8.672.965 2.429-.804 4.279-1.045 5.551-.482 1.503.482 2.312.241 3.353-.885 1.156-1.287 1.041-1.528-.347-1.528-.925 0-1.734-.322-1.734-.724 0-1.046 3.237-1.77 4.047-.805.462.402 1.156.563 1.85.322 1.04-.483 17.922-1.528 22.779-1.448 1.387.081 2.544-.241 2.544-.563 0-1.287 4.74-1.448 8.094-.241 4.278 1.448 4.278 1.609.347 1.689-1.85 0-4.51.241-6.129.402-1.619.161-3.469 0-4.162-.402-.81-.402-1.619-.241-1.966.483-.463.804.578 1.206 3.584 1.447 2.313.242 4.394.081 4.626-.241.231-.322 1.04-.483 1.965-.241.81.241 2.66 0 4.047-.483 1.735-.643 2.891-.643 3.932 0 1.156.644 1.734.563 2.312-.402.347-.643.116-1.207-.462-1.207-.694 0-1.157-.321-1.157-.723 0-.403 2.082-.885 4.741-1.046 4.163-.241 4.857-.081 5.782 1.609.578 1.045 1.619 1.608 2.197 1.367.925-.402.809-.885-.116-1.689-1.734-1.448-.578-2.333 3.122-2.333 2.891-.08 3.7.724 1.619 1.609-.578.241-1.156.965-1.041 1.448 0 .724.231.724.578 0 .347-.563 1.388-.724 2.429-.483 1.156.322 1.618.161 1.04-.402-1.04-1.126 1.272-2.011 6.244-2.333 2.197-.08 6.244-.402 8.904-.643 2.659-.161 5.203 0 5.55.402.347.402 1.388.563 2.313.241 1.271-.321 1.503-.08 1.04.885-.925 1.689 1.388 1.689 2.775 0 .925-1.206 1.157-1.206 1.735 0 .925 1.609 3.122 1.689 3.122.081 0-.644-.463-1.207-1.157-1.207-.578 0-1.156-.402-1.156-.885 0-.402.578-.563 1.156-.321.694.241 1.157 0 1.157-.563 0-.885.231-.885 1.04 0 .463.643 1.966.965 3.122.804 1.619-.161 2.197.161 1.966 1.367-.115 1.448 0 1.448 1.272.242 1.041-.966 1.85-1.127 3.353-.563 1.272.563 1.966.563 1.966 0 0-.403 1.041-.564 2.313-.322 1.734.322 2.197.161 1.734-.724-.578-.965.347-1.207 4.51-1.207 5.897 0 5.781-.08 4.047 2.413-.694 1.073-.54 1.207.462.403.925-.805 2.082-1.127 2.544-.805.578.322.578-.161.116-.965-.579-1.206-.463-1.367.809-.643.925.563 2.081.643 2.544.321.578-.321.578-.08.116.402-1.041 1.287 3.468 1.448 4.509.242.347-.483.116-.805-.694-.805-.925 0-.925-.321.232-1.287 1.272-1.126 1.503-1.126 2.428 0 .578.724 2.081 1.287 3.237 1.287 1.272 0 2.313.322 2.313.805 0 .402.578.804 1.156.804.81 0 .81-.482 0-1.609-.693-.884-1.04-1.689-.925-1.689.81-.241 7.747-.724 14.223-1.045 4.394-.161 7.284.08 7.747.643 1.387 1.448 1.041 2.091-.809 1.609-.926-.322-1.388-.885-.926-1.368.463-.482.116-.563-.925-.08-2.081.965-7.169.965-8.094 0-.462-.402-1.272 0-1.965.804-1.041 1.448-.694 1.529 6.475 1.448 7.053-.08 7.747-.241 7.516-1.689-.231-1.367.809-1.69 6.822-2.493 3.816-.483 7.516-.724 8.094-.483.578.241 1.735.08 2.66-.483 1.156-.643 2.196-.643 3.931 0 1.388.483 2.428.563 2.428.08 0-.401 2.428-.964 5.55-1.286 3.007-.322 6.013-.885 6.707-1.287.809-.402 2.197-.08 3.931 1.046 2.082 1.367 3.007 1.528 4.741.804 1.156-.563 3.122-.965 4.163-.965 1.272 0 .462.643-1.966 1.528-2.775 1.046-4.625 1.287-6.013.804-1.387-.563-2.89-.402-4.74.483-1.504.643-3.122.965-3.701.643-.462-.402-.578-.241-.115.322.347.483-.116 1.046-1.272 1.287-1.735.322-1.735.402.347.483 1.272 0 3.006-.403 3.816-.966 1.271-.804 1.503-.804.809 0-1.156 1.448.231 1.287 2.428-.16 1.388-.966 2.081-1.046 3.353-.322 1.272.724 2.197.643 3.816-.402 1.272-.805 3.122-1.287 4.394-1.126 1.156.16 1.966-.161 1.85-.805-.462-1.367 1.619-1.206 2.428.322.463.804.232 1.046-.693.643-.81-.321-.925-.24-.463.403.694.724 1.619.643 3.7-.242 3.238-1.528 5.897-1.608 6.591-.321.347.563.694.08.694-1.207.116-1.367.694-2.172 1.85-2.172.925 0 1.734-.321 1.734-.804 0-.402 3.122-.724 7.285-.563 5.319.16 7.169.483 7.169 1.367 0 .644.925 1.287 1.966 1.448 1.619.241 1.85-.08 1.272-1.126-.578-1.046-.347-1.287 1.156-.885 1.272.322 1.966.08 1.966-.563 0-.724.925-.965 2.89-.724 2.429.403 2.544.563 1.157 1.609-.925.644-1.735 1.207-1.735 1.367 0 .08 3.932.08 8.788 0 6.129-.08 9.251-.402 10.407-1.287 1.619-1.126 1.503-1.286-1.272-1.608-1.966-.322-3.238-.08-3.7.643-.81 1.609-6.129 1.448-6.129-.16 0-.644-.462-.966-1.156-.725-.578.242-1.156.08-1.156-.321 0-.885 1.272-1.126 3.237-.724.463.16.694.482.463.804-.347.965 3.006.805 3.816-.16 1.387-1.61 7.169-.886 9.25 1.125 1.735 1.61 2.544 1.85 4.394 1.126 1.156-.402 3.238-.643 4.394-.402 1.388.242 2.197 0 2.197-.643 0-.885.694-.965 3.238-.322 3.006.724 9.366.563 14.685-.322 1.271-.241 4.047-.482 6.128-.482 2.081-.08 3.584-.403 3.237-.805-.346-.321.579-.482 1.966-.321 3.932.482 5.897-.805 4.394-2.816-1.156-1.528-.925-1.85 2.197-2.976 1.966-.724 4.047-1.045 4.51-.804.578.241 1.387-.08 1.618-.563.463-.804.694-.804.694 0 .116.643.694.804 1.619.402.694-.322 3.006-.643 4.857-.724 1.965 0 6.012-.322 9.019-.643 4.394-.483 5.434-.885 4.972-1.85-.463-.805-.232-1.046.693-.805.81.242 2.313.644 3.354.966 1.04.24 2.659 0 3.469-.644.925-.563 3.353-.965 5.434-.885 2.891.161 3.7-.08 3.238-.884-.578-1.046 1.156-1.207 3.469-.161.809.321 1.619-.161 1.965-1.126.463-1.207.232-1.529-.925-1.207-1.04.241-1.387 0-1.04-.724.694-1.206 7.516-4.585 12.372-6.113 1.735-.563 3.122-1.287 3.122-1.608 0-.403.925-.483 2.081-.242 1.735.402 1.735.322.116-.643-.925-.563-2.081-1.69-2.544-2.494-.462-.804-1.387-1.206-1.965-.965-.694.322-1.851.241-2.66-.16-1.387-.805-2.775-.725-21.045.08-5.087.16-15.494.563-23.125.804-7.632.241-16.998.643-20.814.885-3.816.241-12.372.563-19.079.724-15.61.321-47.755 1.287-58.971 1.77-4.741.16-11.1.32-14.222.32s-6.476.323-7.632.805c-1.503.563-2.544.563-3.006 0-.347-.402-2.197-.804-4.047-.804-1.85 0-3.7.402-4.047.804-.463.563-1.388.563-2.891 0-2.659-.965-7.053-1.126-4.972-.16.809.321-3.122.562-8.672.482-5.551-.08-10.754.16-11.448.644-1.04.563-2.081.482-3.468-.242-1.619-.965-1.851-.965-.926 0 .694.805.463.965-.693.483-1.85-.885-5.435-.885-8.326 0-1.156.322-2.312.402-2.659.16-.463-.24-1.966-.08-3.585.322-1.618.403-3.353.483-4.047.242-1.619-.724-13.875-1.046-15.378-.483-1.388.563-14.338.322-15.726-.322-.578-.241-1.041 0-1.041.403 0 .482-.578.884-1.272.884-.578 0-.925-.321-.462-.724.347-.482-2.081-.643-6.013-.402-3.7.242-11.1.483-16.535.563-6.36.08-10.407.563-11.447 1.207-1.272.885-1.85.885-2.428.08-.579-.482-1.735-.724-2.891-.482-1.041.321-1.619.24-1.157-.242.463-.482-.809-.804-2.775-.804-1.85 0-3.7-.322-4.047-.644-.231-.321 1.272-.482 3.469-.321 2.197.16 3.932 0 3.932-.483s-1.041-.643-2.313-.402c-3.353.643-3.006-1.85.578-3.459 2.313-1.045 3.238-1.126 4.625-.322 1.157.644 1.735.725 1.735.161 0-.482.809-.724 1.734-.482.925.322 2.428.16 3.238-.322.809-.483 3.353-.563 6.013-.241 3.469.402 4.625.885 4.509 2.01-.115.724.116 1.207.463.966.347-.242 1.387 0 2.312.563 1.388.724 1.85.724 2.197-.08.578-1.046 3.816-1.368 3.816-.322 0 1.287 6.128.885 8.903-.644 1.619-.885 2.429-1.608 1.735-1.608-.578 0-1.388-.564-1.735-1.127-.462-.884-.115-1.045 1.157-.724 1.272.322 1.619.161 1.04-.402-.578-.643 0-.965 1.504-.965 1.387 0 2.543.322 2.543.804.116.403.347 1.127.463 1.61.116.401.347 1.045.463 1.367.115.563 4.74-2.977 4.74-3.78 0-.323.81-.564 1.735-.564s1.272.402.925.805c-.463.482 0 .643 1.156.321 1.041-.241 2.197-.16 2.544.241.463.483 1.619.483 3.006-.08 1.272-.402 2.891-.643 3.701-.402 1.04.241 1.04.402 0 .402-.81.08-1.504.402-1.504.724 0 1.126 8.094.322 9.944-1.046 1.735-1.126 1.966-1.126 3.354.08 1.04 1.127 2.197 1.207 5.897.644 2.428-.322 5.203-.643 6.013-.563 1.156.08 1.156-.16.115-1.045-1.04-.885-1.04-1.127 0-1.127.81 0 1.041-.402.694-.804-.347-.482-.347-.804.231-.885.463 0 2.891-.16 5.319-.321s5.666-.483 7.4-.724c2.544-.483 2.776-.402 1.272.643-1.156.724-2.775.965-4.393.724-2.082-.402-2.429-.241-1.735.644.809.884.694.965-.694.16-1.156-.643-2.197-.723-3.353-.08-1.388.644-1.388.724.231.322 1.157-.242 2.313 0 2.775.402.347.482 1.966.643 3.469.402 1.85-.322 3.007-.16 3.469.563.694 1.367 9.829 1.528 11.101.161.578-.483.925-.322.925.402 0 1.046.115 1.046 1.156 0 .925-.965 1.156-.965 1.156-.08 0 .884.347.884 1.735.08.925-.483 2.659-.724 3.931-.402 2.197.483 3.816-.563 4.394-2.735.116-.563.809-1.528 1.503-2.01 1.041-.644 1.272-.162.925 1.85-.231 1.769.232 2.895 1.272 3.136.925.161 1.272 0 .925-.402s1.272-.643 3.585-.483c3.353.161 3.816.08 1.965-.482-1.965-.644-2.081-.804-.231-.804 2.081-.08 2.891-1.69.81-1.69-.579 0-1.157-.321-1.157-.643 0-.402.81-.724 1.735-.724s1.734.483 1.734 1.126c0 .563.578 1.046 1.272 1.046.578 0 .925.322.463.724-.81 1.045 6.706.724 7.747-.242.462-.482 1.85-.482 3.584.08 1.619.564 3.238.725 3.7.403.463-.322 3.701-.643 7.285-.643 3.7-.08 8.672-.322 11.216-.563 2.544-.242 7.979-.644 12.141-.885 4.163-.322 10.407-.965 13.876-1.448 3.469-.483 7.053-.885 7.863-.885.809 0 1.272-.483.925-1.126-.347-.563-.116-1.046.462-1.046.694 0 1.157.322 1.157.724 0 .483 1.04.724 2.312.644 1.272-.08 2.313-.322 2.313-.644s1.618-.402 3.584-.16c2.66.24 3.354.08 2.775-.644-.578-.643-.462-.804.347-.402 1.503.643 6.013-.805 6.013-1.93 0-.483-.925-.886-1.966-.886-1.156-.08-.231-.402 1.966-.723 2.197-.403 5.203-.885 6.706-1.207 2.429-.563 3.238.402 2.66 2.976-.231.965 1.503.724 4.163-.563 1.734-.804 2.659-.885 2.89-.322.232.563 1.504.724 2.775.403 1.619-.322 2.197-1.207 2.197-3.057 0-2.172.81-2.815 6.36-5.148 3.469-1.448 6.822-2.815 7.285-2.895 2.197-.644-.925-3.057-5.319-4.183-3.816-.965-9.829-1.206-28.214-1.046-12.95.08-23.473-.08-23.473-.402 0-.482 2.197-1.689 3.469-1.93.347 0 1.388-.241 2.313-.563.925-.242 2.544-.644 3.469-.805 1.387-.402 1.387-.482-.116-.482-1.041-.08-2.197-.724-2.544-1.609-.809-2.252-6.706-2.654-30.873-2.091-21.044.563-26.363.241-23.01-1.287 1.04-.483 1.156-.965.462-1.367-1.156-.483-1.272-1.046-.693-3.218 0-.322 4.047-2.252 8.787-4.183 5.666-2.332 8.557-3.94 8.094-4.665-.346-.643-.578-1.367-.578-1.608 0-1.448-7.516-2.735-14.8-2.494-7.632.241-12.951-.482-14.223-1.77-1.156-1.367-13.297-2.332-31.913-2.493-10.407-.16-18.848-.402-18.848-.643 0-.242-6.128-.483-13.644-.644-23.126-.402-40.008-.965-41.511-1.287-.694-.241-1.504-.241-1.735-.08Zm-49.258 8.445c2.428 0 4.394.322 4.394.805 0 .402-.347.804-.81.884-7.862.644-47.061 1.127-53.767.564-1.041-.08-1.735-.403-1.388-.805.347-.402 1.156-.482 1.735-.241.578.241 2.89.16 5.087-.322 3.007-.563 4.047-.482 4.047.161 0 .563.578.322 1.272-.483.81-.965 1.735-1.206 2.544-.723.809.402 3.469.723 6.013.563 2.544-.08 5.203.16 5.781.482 1.388.724 7.054.483 8.326-.322 1.272-.884 2.89-.643 1.965.322-1.04 1.207 4.163.08 6.476-1.367 1.04-.724 1.965-.885 2.775-.322.693.483 3.122.804 5.55.804Zm-19.888-.482c0 .241-.463.643-1.157.885-.578.24-1.156.08-1.156-.322 0-.483.578-.885 1.156-.885.694 0 1.157.16 1.157.322Zm-46.137 3.298c.579-.322 1.041-.161 1.041.321 0 .805-6.706 2.092-7.747 1.448-.347-.241.694-1.287 2.081-2.413 2.544-1.77 2.775-1.77 3.122-.402.231.804.925 1.287 1.503 1.046Zm8.904.563c-.81 1.608-3.238 1.689-3.353.08 0-.804-.347-1.046-.694-.482-.231.563-.925 1.045-1.503 1.045-1.272 0-2.429-2.413-1.619-3.298.809-.965 7.631 1.529 7.169 2.655ZM336.97 9.41c0 1.126-2.082 1.85-3.469 1.287-.694-.322-.925-.885-.578-1.287.925-.965 4.047-.965 4.047 0Zm135.749 16.57c-.463.643-.925 1.206-1.157 1.206-.231 0-.462-.563-.462-1.206 0-.644.462-1.207 1.156-1.207.578 0 .81.563.463 1.207ZM47.896 48.905c0 .804-.463 1.77-1.157 2.01-.694.322-1.156-.563-1.156-2.01 0-1.448.462-2.333 1.156-2.011.694.241 1.157 1.206 1.157 2.01Zm65.908-.08c0 .401-.809.884-1.618 1.125-1.157.322-1.504.08-1.041-.724.694-1.206 2.659-1.528 2.659-.402Zm-28.907.803c0 1.288-2.89 1.529-4.394.403-1.272-.965-.925-1.126 1.503-1.126 1.62 0 2.891.321 2.891.724Zm12.141.081c-.347.402-1.272.804-1.85.804-.694 0-.81-.402-.462-.804.347-.483 1.272-.804 1.85-.804.693 0 .81.321.462.804Zm446.909 1.609c0 .402-.579.804-1.272.804-.578 0-.81-.402-.463-.804.347-.483.925-.805 1.272-.805.231 0 .463.322.463.805Zm-34.805 4.021c-.925.644-4.509.563-4.509-.16 0-.322.578-.644 1.156-.644.694 0 1.041-.241 1.041-.643-.463-1.69.346-2.011 1.503-.564.809.885 1.156 1.77.809 2.011Zm29.601-1.608c-1.156.884-2.544 1.608-3.237 1.608-.579 0 .115-.724 1.618-1.608 3.585-2.011 4.279-2.011 1.619 0Zm-17.344.804c.347.402.231.804-.463.804-.578 0-1.503-.402-1.85-.804-.347-.483-.231-.804.463-.804.578 0 1.503.321 1.85.804Zm-25.67.965c-.231.402-2.081.644-3.931.644-1.966 0-3.238-.322-2.775-.805.346-.402 2.197-.643 3.931-.563 1.85.08 3.122.402 2.775.724Zm-13.875 1.207c-.463.724-1.157.804-2.776.16-2.775-1.045-2.775-1.125.579-1.125 1.618 0 2.543.402 2.197.965Zm-20.236.402c-.231.483-1.734.965-3.237 1.046-2.428.16-2.544.08-.578-.966 2.659-1.287 4.394-1.367 3.815-.08Zm8.326.16c0 .162-.81.483-1.735.805-.925.242-1.734.08-1.734-.322 0-.482.809-.804 1.734-.804.925 0 1.735.161 1.735.322Zm-20.236 1.288c1.504 0 1.851.241.926.885-.81.563-2.313.482-5.088-.483-3.007-.885-3.238-1.126-1.041-.804 1.619.16 3.932.402 5.203.402Zm-348.16 3.298c-1.503.402-1.62.643-.463.643 1.041.08.578.563-1.156 1.126-2.544.965-3.006.885-4.278-.563-1.157-1.448-1.041-1.77 1.156-2.172 1.388-.24 3.584-.24 4.741 0 1.541.215 1.541.537 0 .966Zm314.05-.483c0 .724-.694.965-1.735.724-.925-.322-1.387-.804-1.04-1.207.925-1.126 2.775-.804 2.775.483Zm-359.03 1.046c-.347.24-1.272 0-2.081-.563-1.041-.805-.925-.885.693-.403 1.157.242 1.735.724 1.388.966Zm23.473-.08c.23.643-.578 1.045-1.966 1.045-2.428 0-4.047-1.046-2.775-1.93 1.156-.805 4.163-.242 4.74.884Zm12.488-.162c1.156.644 1.618 1.207.809 1.207-2.197 0-4.972-.885-4.972-1.69 0-1.045 1.619-.884 4.163.483Zm18.269 0c.347.644.116 1.207-.462 1.207-.694 0-1.157-.563-1.157-1.207 0-.643.232-1.206.463-1.206s.694.563 1.156 1.206Zm18.038-.402c0 .402-.462.804-1.156.804-.578 0-1.156-.402-1.156-.804 0-.483.578-.804 1.156-.804.694 0 1.156.322 1.156.804Zm-81.287.483c-.347.241-1.388.322-2.197.08-.925-.241-.578-.482.694-.482 1.272-.08 1.965.16 1.503.402Zm92.85.322c0 .402-.925.804-1.965.804-1.735 0-1.85-.161-.347-.805 2.197-.965 2.312-.965 2.312 0Zm231.26 3.378c0 1.528-.232 1.608-1.157.643-.925-.965-1.156-.965-1.156-.08 0 .804-.578.804-2.891-.242-1.619-.723-3.584-1.126-4.278-.804-.81.322-.925.242-.463-.322.463-.563 2.891-.965 5.435-.965 3.931 0 4.51.242 4.51 1.77Zm-53.19 2.413c0 .322-1.156.965-2.428 1.528-1.966.724-2.313.644-1.619-.16.694-.725.347-.805-.925-.483-2.544.724-5.088 1.206-3.932.804.463-.241.81-.965.81-1.69 0-1.206-.231-1.206-1.156-.16-.81.885-1.157.965-1.157.16 0-.643 1.041-1.286 2.313-1.528 1.272-.24 2.312-.804 2.312-1.206 0-.804 5.666 1.85 5.782 2.735Zm3.469-2.172c1.156.965 1.156 1.207-.463 1.207-1.04 0-1.85-.564-1.85-1.207 0-.643.231-1.206.463-1.206.231 0 1.04.563 1.85 1.206Zm-48.102 3.137c-.925 1.609-2.428 1.609-4.857 0-1.734-1.206-1.618-1.287.579-.804 1.387.321 2.775.16 3.237-.322 1.157-1.287 1.966-.483 1.041 1.126Zm33.07-.965c0 .402-1.388.402-3.006.16-2.429-.401-2.891-.321-2.197.483.578.724.462.885-.463.483-.694-.322-1.041-.965-.694-1.367.81-.885 6.36-.644 6.36.24Zm-81.288.885c.232.24-.693.643-2.081.965-1.619.402-2.891.241-3.122-.322-.231-.483-.925-.724-1.503-.402-.578.241-1.041 0-1.041-.483 0-.885 6.475-.643 7.747.242Zm28.676-.242c.463.483 1.272.563 1.966.322.81-.322.925-.16.463.402-.694.724-1.272.724-2.429.08-.809-.482-2.428-.562-3.468-.24-1.504.321-1.85.24-1.272-.403 1.04-1.206 3.815-1.287 4.74-.16Zm6.823.402c-.81 1.287-2.776 1.69-2.776.483 0-.643.81-1.046 3.123-1.609.115-.08 0 .483-.347 1.126Zm4.74-.482c-.346.402.347.965 1.388 1.126 1.272.241.925.402-1.041.483-3.122.08-4.047-.644-2.428-1.77 1.156-.804 2.891-.644 2.081.16Zm16.535.402c-.231.402-2.081.885-4.278.965-4.047.242-3.7-.804.463-1.528 3.006-.483 4.278-.322 3.815.563Zm11.795-.322c-.925.402-2.544.724-3.469.724-1.157 0-.925-.241.578-.724 3.122-.965 4.972-.965 2.891 0Zm-253.23 8.124c0 .885-3.121.965-3.93.08-.232-.321.462-.723 1.734-.723 1.156-.08 2.197.16 2.197.643Zm4.626-.402c0 .644-2.197 1.046-2.775.483-.347-.403.115-.724 1.04-.724.926 0 1.735.16 1.735.241Zm36.655 0c-.347.241-1.388.322-2.197.08-.925-.24-.578-.482.693-.482 1.272-.08 1.966.16 1.504.402Zm6.475 2.091c1.156 1.287 1.619 2.252 1.04 2.252-.924 0-3.7-3.458-3.7-4.584 0-.563.116-.483 2.66 2.332Zm525.421-.482c-.347.241-1.388.321-2.197.08-.925-.241-.578-.483.694-.483 1.272-.08 1.965.161 1.503.403ZM85.706 80.435c-.346.643-.693.402-.693-.483-.116-.884.231-1.367.578-1.045.347.241.462.965.116 1.528Zm41.743-.241c1.156.482.925.804-1.041 1.126-3.006.563-3.931.241-2.775-.965.809-1.046 1.734-1.127 3.816-.161Zm32.029.08c.347.483-.115.563-1.04.322-2.082-.563-2.429-1.126-.81-1.126.694 0 1.503.322 1.85.804Zm-61.862.804c0 .403-.23.805-.462.805-.347 0-.925-.402-1.272-.805-.347-.482-.116-.804.462-.804.694 0 1.272.322 1.272.804Zm11.448-.563c-.232.08-1.388.724-2.429 1.287-1.734.966-2.081.885-2.081-.24 0-.805.925-1.288 2.544-1.288 1.388 0 2.197.08 1.966.241Zm9.366.563c0 .403-.463.805-1.157.805-.578 0-1.156-.402-1.156-.805 0-.482.578-.804 1.156-.804.694 0 1.157.322 1.157.804Zm418.001 10.457c.347.483-.116.563-1.041.322-2.081-.563-2.428-1.126-.809-1.126.693 0 1.503.321 1.85.804Zm17.691.885c.347.885.116.885-.809-.08-1.157-1.046-1.272-1.046-1.272 0 0 .804-.347.884-.925.321-.463-.483-1.619-1.126-2.544-1.367-.925-.242-.231-.403 1.619-.242 1.965.08 3.7.724 3.931 1.368Zm-73.772 3.458c0 .161-.809.563-1.85.805-.925.241-1.387.16-1.04-.322.693-.804 2.89-1.126 2.89-.483Zm-290.692 4.505c4.278-.724 5.203.241 1.734 1.608-2.544.885-7.4 0-8.788-1.689-.694-.643-.347-.724 1.156-.161 1.157.483 3.701.563 5.898.242Zm9.019.643c-.579.322-1.388.885-1.735 1.207-.347.402-1.04.161-1.387-.402-.347-.724.347-1.127 1.734-1.207 1.272-.08 1.85.08 1.388.402Zm-39.43 1.609c-.347.563-1.041.804-1.388.402-.347-.322-1.156-.885-1.734-1.206-.463-.322.116-.483 1.387-.403 1.388.081 2.082.483 1.735 1.207Zm77.125 7.078c0 .644-.578.965-1.156.724-.694-.322-.925-.885-.579-1.287 1.041-1.126 1.735-.885 1.735.563Zm-24.282 1.207c0 .321-.578.884-1.157 1.126-.693.321-.809.885-.462 1.367.462.563.231.644-.463.322-1.965-.804-1.734-3.459.347-3.459.925 0 1.735.322 1.735.644Zm-102.911 7.641c0 .643-.578.965-1.156.724-.694-.322-.925-.885-.578-1.287 1.041-1.126 1.734-.885 1.734.563ZM69.865 122.1c1.503.644 1.503.804-.231.804-1.04 0-2.313-.402-2.66-.804-.925-1.046.579-1.046 2.891 0Zm444.596 0c-.347.402-1.272.804-1.85.804-.694 0-.809-.402-.463-.804.347-.483 1.272-.804 1.851-.804.693 0 .809.321.462.804Zm-455.002.804c0 .403-.579.805-1.272.805-.578 0-.81-.402-.463-.805.347-.482.925-.804 1.272-.804.231 0 .463.322.463.804Zm-4.973.483c-.346.241-1.387.322-2.197.08-.925-.241-.578-.482.694-.482 1.272-.081 1.966.161 1.504.402Zm304.106 6.435c-.347.241-1.387.321-2.197.08-.925-.241-.578-.482.694-.482 1.272-.081 1.966.16 1.503.402Zm10.06.724c-.462.643-1.156.965-1.734.724-1.272-.483-.232-1.931 1.272-1.931.578 0 .809.563.462 1.207Zm-51.339 1.287c0 .482-.463.563-1.157.321-1.04-.402-1.619.563-1.387 2.092.115.321-.925.724-2.082.965-1.272.241-2.081.08-1.734-.241 1.272-1.448-1.966-1.69-3.469-.322-2.081 2.011-3.469.965-1.503-1.207.809-.965 2.197-1.528 3.238-1.287 1.04.242 2.89-.08 4.047-.724 2.312-1.206 4.047-.965 4.047.403Zm-31.22.724c0 .402 1.156.804 2.659.804 2.313.08 2.313.161.463.885-2.66 1.126-6.707.161-5.782-1.368.694-1.287 2.66-1.528 2.66-.321Zm12.95.321c1.735 0 2.66.402 2.197.724-1.503 1.046-8.556.322-9.135-.965-.462-.885 0-.965 1.619-.483 1.272.322 3.585.644 5.319.724Zm-23.357.805c0 .241-.463.643-1.156.884-.578.242-1.157.081-1.157-.321 0-.483.579-.885 1.157-.885.693 0 1.156.161 1.156.322Zm-256.698 2.091c0 .402-.81.563-1.734.322-.925-.322-1.735-.644-1.735-.805 0-.161.81-.321 1.735-.321s1.734.321 1.734.804Zm176.914.161c0 .643.346.724.925.241 1.271-1.287 3.7-1.287 3.006 0-.463.724-1.966 1.046-4.857.885-4.856-.322-6.59-2.091-2.081-2.091 1.619 0 3.007.482 3.007.965Zm-160.957 1.85c-.347.241-1.04-.161-1.388-.965-.693-1.127-.578-1.207.579-.483.81.563 1.156 1.206.81 1.448Zm27.982-1.207c0 .965-3.468 2.655-4.162 2.172-1.272-.804.347-2.735 2.312-2.735 1.041 0 1.85.322 1.85.563Zm78.166 2.172c-.578 1.367-1.156 1.85-1.734 1.206-1.504-1.689-5.897-1.849-5.897-.321 0 1.126-.232 1.206-1.041.161-.81-.805-.463-1.448 1.156-2.253 2.081-.965 2.66-.965 4.741.403 1.388.804 2.081.965 1.619.402-.463-.483-.463-1.368-.116-1.85 1.388-1.448 2.081-.081 1.272 2.252Zm19.657-1.77c-2.659 1.448-4.163 1.529-4.163.322 0-.402.463-.643.925-.402.463.161 1.619.08 2.544-.402 2.66-1.126 3.122-.805.694.482Zm-131.355.403c0 .402-.81.563-1.735.321-.925-.321-1.734-.643-1.734-.804 0-.161.81-.322 1.734-.322.925 0 1.735.322 1.735.805Zm18.154-.322c-.347.241-1.388.322-2.197.08-.925-.241-.578-.482.694-.482 1.272-.081 1.965.161 1.503.402Zm7.284.322c1.272.563 1.272.804.232.804-.81 0-1.157.402-.694.885.347.482-.578.241-2.313-.483-1.619-.804-3.006-1.528-3.006-1.689 0-.643 4.047-.241 5.781.483Zm12.72 0c0 .402-.81.563-1.735.321-.925-.321-1.734-.643-1.734-.804 0-.161.81-.322 1.734-.322.925 0 1.735.322 1.735.805Zm43.939.482c0 .161-.81.322-1.735.322s-1.734-.322-1.734-.804c0-.403.809-.563 1.734-.322.925.322 1.735.643 1.735.804Zm10.06 0c-.347.242-1.388.322-2.197.081-.925-.242-.578-.483.693-.483 1.272-.08 1.966.161 1.504.402Z" clip-rule="evenodd"/><path fill="#EDE1D1" fill-rule="evenodd" d="M427.277 61.694c-.925.402-1.156 1.126-.694 1.689.694.724 1.156.643 1.966-.322 1.387-1.689.809-2.252-1.272-1.367Zm-34.92 3.861c-1.002.911-.771.992.694.24 1.271-.642 2.543-1.286 2.775-1.366.231-.161 0-.242-.694-.242s-1.966.644-2.775 1.368ZM346.22 66.6c0 .804.81.965 4.047.965 3.238 0 4.048-.16 4.048-1.126 0-.724-.347-.724-1.272-.08-.925.643-2.313.643-4.047.241-1.735-.483-2.776-.483-2.776 0Zm150.666 29.278c.231.483 1.272.966 2.312 1.126 1.272.161 1.735-.08 1.388-.884-.81-1.287-4.278-1.529-3.7-.242Zm-65.563 3.781c.347.402 1.388.724 2.429.724 2.197 0 1.04-1.046-1.388-1.287-.925-.08-1.503.16-1.041.563Zm12.951-.322c1.388.161 2.197.724 1.851 1.207-.463.402.462.321 1.965-.161 4.163-1.528 4.163-1.609-1.387-1.528-2.775.08-3.932.321-2.429.482Z" clip-rule="evenodd"/><path fill="#EDE1D1" d="M468.788 100.383c.638 0 1.156-.36 1.156-.804 0-.445-.518-.805-1.156-.805-.639 0-1.157.36-1.157.805 0 .444.518.804 1.157.804Z"/><path fill="#EDE1D1" fill-rule="evenodd" d="M110.798 100.463c1.735.724 1.85 1.046.578 1.609-1.04.482 1.388.643 6.244.402 4.279-.161 7.747-.08 7.747.241 0 .724 4.51.966 9.02.483 4.047-.483 5.087-1.689 1.503-1.689-1.272 0-1.966.322-1.735.643.347.322 0 .644-.578.644-.694 0-1.272-.402-1.272-.885 0-.402-.462-.644-1.04-.322-.579.242-1.388.081-1.85-.322-.347-.482-3.932-.563-8.557-.321-5.319.321-8.094.161-8.672-.483-.463-.482-1.503-.885-2.197-.885-.81 0-.463.403.809.885Zm-4.509.724c-.347.402-.115.804.463.804.694 0 1.272-.402 1.272-.804 0-.483-.231-.804-.463-.804-.347 0-.925.321-1.272.804Zm323.763 0c.347.402 1.619.804 2.659.804 1.735 0 1.735-.16.232-.804-2.313-1.046-3.816-1.046-2.891 0Zm-290.115 1.287c-1.041 1.93-.81 2.252.809 1.206.925-.482 1.966-.643 2.428-.321 1.851 1.287 4.163.804 4.163-.805 0-1.287-.347-1.448-1.387-.724-.81.563-1.966.644-3.354.161-1.387-.563-2.197-.402-2.659.483Zm287.224-.483c0 .403.578.805 1.272.805.578 0 .809-.402.462-.805-.346-.482-.925-.804-1.271-.804-.232 0-.463.322-.463.804Zm-54.346 1.609c0 .402.81.563 1.735.322.925-.322 1.734-.644 1.734-.805 0-.16-.809-.321-1.734-.321-.925 0-1.735.321-1.735.804Zm-35.845 3.218c0 .402.578.804 1.272.804.578 0 .81-.402.463-.804-.347-.483-.925-.805-1.272-.805-.232 0-.463.322-.463.805Zm-31.798 1.608c.347.403.925.805 1.272.805.232 0 .463-.402.463-.805 0-.482-.578-.804-1.272-.804-.578 0-.81.322-.463.804Zm-37.58.805c.925.402 2.313.804 2.891.804.694 0 .347-.402-.578-.804-.925-.403-2.197-.805-2.891-.805-.578 0-.347.402.578.805Z" clip-rule="evenodd"/><path fill="#EDE1D1" d="M264.123 110.839c.639 0 1.157-.36 1.157-.804 0-.444-.518-.805-1.157-.805-.638 0-1.156.361-1.156.805 0 .444.518.804 1.156.804Z"/><path fill="#EDE1D1" fill-rule="evenodd" d="M227.7 112.448c-.347.483.116.563 1.041.322 2.081-.563 2.428-1.126.809-1.126-.694 0-1.503.321-1.85.804Zm-36.307 1.528c-1.041.483-.463.644 1.966.563 1.965-.08 3.931-.402 4.394-.724 1.156-.804-4.394-.724-6.36.161Zm7.978.885c0 .402.578.804 1.272.804.578 0 .809-.402.462-.804-.346-.483-.925-.804-1.271-.804-.232 0-.463.321-.463.804Zm-38.505 1.126c-.694 1.287.231 2.252 1.619 1.609 1.388-.563 1.272-2.735 0-2.735-.578 0-1.272.482-1.619 1.126Zm7.285-.322c-1.503.644-1.388.804.347.804 1.04 0 1.965-.402 1.965-.804 0-.965-.115-.965-2.312 0Zm-47.062 2.976c-.809.161-1.503.644-1.503 1.046 0 1.046 3.353 1.609 4.162.643.579-.563.232-.643-.693-.241-1.157.483-1.388.322-.81-.643.347-.805.578-1.368.463-1.287-.116 0-.925.241-1.619.482Zm273.118 12.468c.116 1.447.925 1.85 3.585 2.011 2.312.08 2.543 0 .809-.322-1.503-.161-2.66-.644-2.66-1.046s.925-.563 2.082-.241c1.619.402 1.503.241-.347-.805-3.122-1.769-3.7-1.689-3.469.403Zm9.713-1.046c1.271.563 1.156.805-.579 1.046-1.734.322-1.618.483 1.041 1.046 1.735.321 3.585.402 3.931.16.926-.643-2.659-2.976-4.509-2.976-1.156 0-1.156.161.116.724Zm36.539.08c-.347.402.115.805 1.04.805 1.041 0 1.85.482 1.85.965 0 .724.347.804.925.161.463-.483 1.619-1.126 2.544-1.448.925-.241.578-.322-.809-.161-1.503.161-2.66 0-2.66-.402 0-.965-1.965-.885-2.89.08Zm16.534-.241c.809.242 1.85.161 2.197-.08.463-.242-.231-.483-1.503-.402-1.272 0-1.619.241-.694.482Zm-99.441 4.022c.694.161 2.082.161 2.891 0 .694-.241.116-.402-1.503-.402s-2.197.161-1.388.402Zm-114.242 1.85c-1.503.643-1.388.804.347.804 1.041 0 1.966-.402 1.966-.804 0-.965-.116-.965-2.313 0Zm-12.257 1.206c.463.885-.115 1.207-2.197 1.207-4.047 0-4.625 1.367-.462 1.448 2.081 0 4.509-.644 6.475-1.931l3.006-1.93h-3.815c-2.775 0-3.585.322-3.007 1.206Zm7.632-.08c0 .643-.925 1.367-1.966 1.528-1.156.242-.231.402 1.966.483 2.775 0 3.469-.161 2.428-.644-.809-.402-1.156-1.126-.809-1.608.462-.483.231-.885-.347-.885-.694 0-1.272.483-1.272 1.126Zm-85.45 3.7c-1.041.402-.463.563 1.503.563 3.353 0 3.7-.161 1.503-.804-.925-.242-2.313-.161-3.006.241Z" clip-rule="evenodd"/></svg>