<svg xmlns="http://www.w3.org/2000/svg" width="113" height="111" fill="none"><path fill="#EDE1D1" fill-rule="evenodd" d="M66.067.293c.293.195.097.26-.618.162-1.074-.13-1.237.066-1.139 1.432.033.39-.163.488-.748.358-1.009-.163-1.041-.586-.065-.846l.715-.195L63.4.716c-1.008-.586-1.627-.65-.878-.098.488.358.293.423-1.236.423-1.27 0-1.92-.163-2.115-.488-.293-.423-.325-.423-.325 0 0 .39-.065.39-.293.033-.195-.326-.325-.326-.52-.033-.13.228-.554.293-1.01.195-.455-.13-.78-.065-.78.13 0 .163.325.326.748.326.52 0 .586.097.26.292-.357.228-.357.293 0 .456.326.13.326.195.066.195-.228.033-.423.195-.423.358 0 .78-.814 1.236-1.594.91-.456-.162-1.237-.194-1.79-.097-.683.13-.878.098-.553-.097.358-.26.293-.358-.26-.553-.943-.293-.585-.781.423-.586.488.098 1.041-.032 1.334-.325.65-.683.618-.976-.13-.716-.326.098-1.172.26-1.855.325-1.236.163-1.952.488-1.073.488.26 0 .488.293.488.651 0 .358-.033.65-.065.65 0 0-.52-.227-1.106-.552-1.302-.651-3.384-.879-3.058-.358.13.195.097.293-.066.162-.162-.097-1.366 0-2.667.228-1.269.228-2.57.358-2.83.325-.26-.032-.488.066-.488.228 0 .163.39.293.91.325.489.033 1.367.066 1.92.13.585.033 1.008-.032.91-.162-.064-.13.261-.163.749-.065.878.163.878.195-.26.488-.748.228-.944.39-.553.455.292.098.553.358.553.651 0 .358.195.455.683.325.553-.162.65-.065.52.456-.162.65.293.878.488.227.098-.227.228-.195.358.163.163.39.033.553-.423.553-.325 0-.78.26-.976.553-.292.488-.357.488-.227.065.13-.423-.033-.52-.846-.423a28.9 28.9 0 0 0-1.53.13c-.422 0-.422.066 0 .358.391.293.391.326-.097.163-.325-.098-1.073-.195-1.626-.195-.944-.033-.976-.065-.456-.456.293-.227.911-.357 1.366-.26.488.065.814 0 .814-.228 0-.195.228-.357.52-.357.26 0 .39-.163.293-.326-.097-.195.033-.325.326-.325.292 0 .422-.163.325-.325-.13-.196-.325-.26-.488-.163a.35.35 0 0 1-.456-.098c-.097-.162-.585-.26-1.073-.195-.52.065-.65.033-.325-.065.292-.098.552-.325.552-.488 0-.423-.422-.358-1.236.228-.488.358-.715.39-.65.097.13-.553-2.603-1.138-3.09-.65-.261.26-.196.358.162.358.292 0 .618.13.715.292.098.13-.26.228-.813.163-.553-.065-1.366.065-1.854.293-.488.26-1.139.39-1.497.293-.423-.098-.52 0-.357.292.195.293.097.326-.358.163-1.172-.488-2.538-.358-2.213.195.196.326.13.326-.227 0-.65-.585-1.106-.488-.586.163.325.358.325.455.065.293-.26-.13-.423-.065-.423.195 0 .293-.097.293-.325-.065-.26-.423-.358-.423-.618-.033-.163.228-.423.358-.553.26-.488-.26-1.757.391-1.757.911 0 .293.163.423.325.326.196-.13.228-.358.13-.553-.13-.228-.064-.26.13-.13.424.26.163 1.17-.357 1.17-.195 0-.26.098-.13.196.097.098.39.065.618-.065.715-.456 1.203-.423 1.008.065-.097.26-.325.455-.553.488-.195 0-.91.065-1.594.13-.748.098-1.138 0-1.04-.195.13-.163.39-.195.585-.098.293.163.293.13 0-.195-.39-.423-3.351-.195-3.351.293 0 .13-.195.26-.456.26-.357 0-2.797 1.301-2.797 1.53 0 .032.293.064.65.097.358.032.586-.065.488-.26-.13-.163.033-.293.358-.293.358 0 .488.195.358.65-.098.39 0 .651.26.651.228 0 .52.228.618.52.13.39.033.456-.455.293-.358-.097-.911-.065-1.204.13-.52.293-.488.358.228.39a10.47 10.47 0 0 0 1.431 0c.358-.032.52.066.39.196-.13.163-.91.293-1.69.293-.782.032-1.693.228-1.985.488-.488.358-.52.358-.163-.033.618-.683.455-1.04-.26-.65-.358.195-.781.292-.944.195-.162-.098-.488.032-.715.325-.358.423-.293.456.553.26l.943-.227-.878.715c-.456.358-1.009.684-1.172.684-.488 0-1.04.813-1.236 1.724-.087.564.217.672.911.325 1.204-.585 1.692-.943.879-.683-1.074.39-1.237-.26-.196-.879.814-.487.944-.487.618-.097-.357.455-.357.52 0 .455.228-.032.619-.162.846-.292.195-.163.553-.163.716-.066.195.098.325-.032.325-.292 0-.326.26-.423.944-.358.618.065 1.008-.033 1.138-.325.098-.26.456-.39.781-.326.716.13 2.115-.715 1.855-1.138-.228-.358 1.366-.618 1.691-.293.163.162 1.074 0 2.05-.358.976-.358 2.05-.618 2.375-.52.325.064.845-.098 1.17-.424.294-.292.749-.487.977-.422.813.26 2.7-.293 2.537-.749-.163-.357-.032-.357.65 0 .944.488 1.4.39 1.4-.357 0-.456.065-.423.52 0 .586.585.976.65 1.269.195.098-.196-.032-.423-.293-.52-.293-.098-.52-.326-.52-.489 0-.195.26-.162.618.033.813.423 1.106.423.846 0-.098-.195.032-.326.292-.326.293 0 .52-.162.52-.325 0-.195.131-.325.294-.325.455 0 .227.976-.293 1.301-.26.163-.39.358-.293.455.26.26 1.627-.78 1.432-1.106-.196-.292 1.431-.78 1.724-.488.097.098-.098.39-.456.619-.325.26-.52.553-.423.683.13.097.456-.033.716-.326.293-.26.683-.488.879-.488.227 0 .292-.26.162-.65-.162-.488-.097-.618.326-.456.292.13.455.39.39.618-.13.26.195.358 1.008.293.683-.065 2.44-.162 3.97-.26 1.496-.098 2.797-.325 2.862-.488.065-.228.358-.228.813.033 1.139.618 5.368.325 6.116-.423.326-.326.814-.52 1.107-.423.455.195.455.26-.033.618-.423.293-.423.39-.098.423.26.032 1.204.13 2.082.227.911.098 1.79.228 1.985.293.195.065.553 0 .813-.162.39-.26.39-.326-.032-.26-.879.097-1.302-.033-1.302-.326 0-.195.293-.26.651-.195.358.065.65 0 .65-.195 0-.456-1.17-.358-1.593.13-.358.455-1.464.52-1.887.13-.13-.13-.26-.456-.293-.748-.065-.358.032-.39.325-.163.39.325 1.171.293 3.384-.163.455-.097.683-.032.585.163-.293.488 1.887 1.399 3.026 1.269.715-.065.91-.228.715-.52-.227-.359-.976-.586-2.472-.684-.163-.033-.098-.195.163-.358.292-.195.358-.325.097-.325-.228 0-.325-.228-.228-.488.13-.26.326-.488.521-.488.163 0 .195.13.098.325-.098.163.032.326.292.326.293 0 .52-.163.52-.358 0-.26.164-.228.489.032.423.358.423.488.098.683-.228.163.13.196.813.13 1.171-.162 1.204-.13.716.39-.521.521-.521.554.195.814.423.163.846.163 1.073-.065.52-.52.814-.39.586.39-.098.423-.033.619.195.489.163-.13.293-.488.228-.814-.065-.293-.13-.65-.13-.78-.033-.098-.358-.13-.749 0-.65.162-.683.097-.325-.326.456-.585 2.277-.943 2.538-.52.097.13-.13.26-.488.26-.39 0-.684.13-.684.325 0 .163.456.325.976.325.976 0 1.302.423.586.846-.228.13-.26.098-.13-.13s.065-.39-.13-.39c-.196 0-.326.26-.26.553.064.325-.066.585-.293.585a.935.935 0 0 0-.586.228c-.325.325.553.13 1.139-.228 1.952-1.268 2.993-1.463 2.082-.422-.326.39-.423.585-.195.455.26-.163.39 0 .39.423s-.195.683-.553.683c-.456 0-.488-.065-.163-.293.326-.195.326-.325-.097-.683-.39-.325-.488-.325-.488.163 0 .358-.163.488-.456.39-.26-.097-.716.033-1.073.26-.369.304-.347.467.065.488.52 0 .553.065.162.326a.536.536 0 0 1-.748-.749c.098-.13-.032-.26-.26-.195-.976.13-1.334-.032-1.139-.52.163-.423.033-.423-.943-.033-.618.26-1.139.358-1.139.163 0-.163-.227-.293-.52-.293-.26 0-.39.13-.293.325.358.586.455 1.66.13 1.464-.163-.13-.293-.032-.293.13 0 .196.293.358.683.358.423 0 .749.326.976.976.358.944.683 1.106 3.188 1.367.456.065.846.26.911.423.066.227-.39.292-1.17.227-1.497-.162-2.05.456-.847.911.456.163.781.456.684.618-.26.39.097 1.334.488 1.334.13 0 .195-.228.097-.488-.13-.26-.065-.488.13-.488.423 0 .326.78-.227 1.432-.358.423-.358.618-.033 1.008.195.26.293.618.163.813-.196.293.227.456.91.358.13 0 .228.13.228.326 0 .195-.292.292-.618.195-.716-.163-1.204 1.008-.65 1.561.227.228.26.13.13-.325-.13-.412-.044-.445.26-.098.26.326.748.586 1.074.586.39.032.227.195-.488.488-1.27.585-1.432.585-1.172.163.326-.52-.357-.39-.813.162-.52.618-.097 1.204.716.944.618-.195.618-.163.097.65-.39.586-.748.814-1.138.683-.326-.097-.749.066-1.009.358-.423.52-.358.553.52.326.716-.163.88-.13.619.13-.195.195-.65.39-1.041.423-.358 0-.618.13-.52.26.064.13-.098.325-.358.423-.423.163-.423.26.065.813.292.358.683.553.845.456.196-.13.228-.033.066.195-.163.26-.358.293-.554.098-.455-.456-1.463-.098-2.017.748-.455.715-.455.78.13.878.651.098.619.13-.162.976-.456.488-1.009.813-1.269.716-.455-.163-1.301 1.594-.943 1.952.13.097.065.195-.13.195-.163 0-.749.39-1.27.846-.552.52-.715.78-.39.683.488-.163.521-.098.196.39-.196.358-.651.586-.944.52-.325-.064-.748.098-.976.391-.52.618-.618 1.724-.162 1.757.195 0 .032.13-.358.293-.423.162-.748.553-.748.878 0 .456-.066.488-.293.163-.196-.358-.326-.326-.488.097-.13.358-.39.488-.716.358-.325-.13-.456-.032-.39.195.097.228-.196.683-.619 1.009-.422.325-.65.748-.553.943.13.228.066.26-.13.13-.227-.13-.39-.097-.39.033 0 .163-.325.423-.716.586-.423.195-.748.553-.748.813 0 .26-.26.585-.586.716-.325.13-.52.39-.422.553.097.162-.033.455-.293.683-.39.325-.488.325-.488-.033s-.065-.358-.293.033c-.195.26-.228.585-.163.715.098.13-.065.163-.325.066-.293-.098-.52-.033-.52.162s-.26.358-.554.358c-.488 0-.52-.065-.097-.325.943-.618.032-.326-1.139.358-.683.39-1.496.618-1.952.553-.423-.098-.716-.033-.618.097.098.163-.13.293-.52.293-.456 0-.618-.13-.456-.39.13-.196-.097-.13-.553.162-.878.65-2.082.748-1.724.163.163-.228.097-.26-.163-.098-.325.196-.293.358.098.749.423.455.65.455 1.171.13.78-.488.976-.488.976-.065 0 .162-.195.325-.456.325-.227 0-.618.228-.845.488-.293.358-.52.39-.976.098-.326-.228-.52-.52-.456-.651.098-.13.033-.26-.162-.26-.196 0-.293-.196-.228-.423.032-.195.032-.293-.033-.163-.097.163-.358.26-.618.26-.292 0-.39.163-.26.358.13.228-.032.228-.52-.032-.586-.326-.651-.456-.293-.684.358-.227.358-.292.032-.292-.52 0-1.529.943-1.529 1.431 0 .195-.227.358-.52.358-.293 0-.781.195-1.074.455-.293.26-.618.358-.748.228-.098-.098-.033-.195.228-.195.325 0 .325-.13-.033-.553-.325-.39-.325-.488-.032-.293.488.293 1.691-.032 1.691-.488 0-.455-1.106-.358-1.822.195-.325.26-1.04.488-1.594.488-.52 0-1.268.228-1.594.488-.325.26-.748.39-.878.293-.163-.097-.293.065-.293.325 0 .293.195.52.423.553.195 0 .098.13-.26.26-.358.163-1.074.13-1.594 0-.52-.162-1.074-.195-1.204-.097-.163.098-.293-.032-.293-.26-.032-.293-.13-.293-.423.097-.227.26-.683.619-1.04.749-.521.195-.554.292-.163.52.422.26.39.325-.066.325-.325 0-.585.163-.585.358 0 .163.13.26.293.13.162-.097.39-.032.488.13.13.163-.26.293-.846.293-.586-.032-1.399.066-1.822.163-.488.13-.65.065-.52-.163.13-.195.032-.292-.228-.195-.26.098-.423.39-.358.716.098.618.065.618-1.041.195-.976-.358-1.464.13-.618.618.748.423.39.456-.683.033-.456-.163-1.074-.228-1.334-.13-.456.195-.423.26.065.618s.423.423-.65.423c-1.27 0-2.31.553-1.985 1.073.097.163.358.195.553.065.228-.13.162.065-.098.39-.26.326-.325.521-.097.391.195-.13.488-.065.585.098.163.26-.13.292-.878.162-.879-.162-1.269-.065-1.724.39-.326.326-.684.586-.781.586-.39.033-2.798 1.432-2.505 1.464.195 0 .032.228-.325.52-.326.261-.423.391-.163.261.293-.163.39-.098.228.163-.13.195-.39.292-.553.162-.196-.097-.618.098-.944.456-.716.78-.293 1.106.879.683.488-.163.748-.13.878.195.195.52-.228.911-.586.586-.292-.326-1.496-.358-1.496-.065 0 .13-.293.195-.65.13-.391-.065-.586 0-.456.195.097.195-.065.325-.39.293-1.042-.13-1.204-.033-.781.488.325.39.325.488-.033.488s-.358.065.033.325c.52.325.488.325-1.041.456-.651.065-.879 1.3-.293 1.594.325.13.162.162-.358.065-.65-.13-.976 0-1.236.488-.195.358-.586.65-.911.65-.347.022-.347.174 0 .456.52.39.455.455-.716.846-.716.227-1.204.553-1.138.683.097.13.032.325-.163.455s-.26.358-.13.52c.097.163.423 0 .748-.39l.553-.683.033.683c.032.39-.066.618-.228.52-.13-.097-.358.066-.456.359-.13.39-.455.455-1.17.293-.619-.13-.977-.098-.977.13 0 .195.423.358.944.358.553 0 1.073.162 1.203.39.13.228.098.26-.13.13-.227-.13-.683.065-1.073.423-.39.358-.879.553-1.139.455-.26-.097-.455 0-.455.228 0 .195-.13.26-.326.163-.162-.098-.325.097-.325.455 0 .488.13.618.553.456.358-.13.455-.098.293.162-.326.52.195.488.748-.032.358-.326.39-.293.195.065-.195.325 0 .39.846.227.618-.097.911-.097.65 0-.878.423-1.658 1.432-1.658 2.245 0 .423-.26.911-.553 1.106-.456.26-.521.456-.228.911.26.456.26.683-.033.976-.227.228-.52.293-.618.195-.26-.26-1.171.944-.976 1.27.098.162-.065.26-.39.26-.423 0-.456.097-.13.487.227.26.553.39.748.26.195-.097.228-.032.098.163-.26.423-1.074.196-1.887-.52-.326-.26-.586-.39-.586-.228 0 .13.293.52.65.813.521.423.619.814.456 1.432-.097.455-.358.846-.585.878-.196 0-.065.13.292.26.412.174.39.39-.065.651-.585.293-.683.52-.423 1.139.163.423.196.878.098.976-.13.097-.033.195.163.195.227 0 .39-.13.39-.26 0-.163.52-.293 1.139-.293 1.3 0 1.138.423-.293.683-1.009.195-1.757.716-1.432 1.041.13.098.488.032.846-.163.846-.455 1.692-.455 1.692-.032 0 .162-.26.228-.553.097-.325-.097-.488-.097-.358.066.13.13.098.455-.098.683-.26.292-.162.52.326.78 1.236.651 4.847.326 5.433-.488.26-.325.423-.39.52-.162.065.26.39.228 1.074-.13 1.756-.879 3.35-1.497 3.871-1.497.293 0 .618-.228.716-.488.13-.26.423-.488.65-.488.749 0 2.115-1.008 1.855-1.399-.098-.162-.033-.227.162-.097.196.097.749.032 1.27-.163.845-.325.877-.39.26-.65-.521-.26-.489-.26.227-.13 1.139.227 2.993-1.302 2.212-1.79-.423-.26-.39-.325.098-.325.293 0 .553.13.553.325 0 .163.163.325.358.325.195 0 .293-.227.163-.488-.13-.357.064-.455.78-.357.52.065.911 0 .814-.13-.228-.358 1.106-1.302 1.821-1.302.488 0 .619-.13.488-.52-.13-.358.033-.586.456-.684.358-.097.65-.26.65-.39s.521-.423 1.14-.683c.617-.26 1.138-.553 1.138-.683s.293-.358.65-.456c.358-.097.651-.423.651-.683 0-.26.195-.455.423-.455.26 0 .716-.293 1.04-.651.294-.325.652-.618.782-.586.715.066.748-.13.065-.488-.456-.195-.846-.618-.944-.878-.097-.293.033-.26.326.13.292.39.683.553 1.04.423.294-.13.521-.065.521.098 0 .52.553.39.781-.196.13-.325.065-.422-.228-.26-.293.195-.293.13.033-.26.325-.423.325-.553 0-.683-.228-.065.097-.228.715-.39 1.107-.228 2.278-1.01 2.278-1.465 0-.13-.39-.195-.879-.13-.52.065-.65.033-.325-.065.293-.097.488-.292.39-.455-.097-.13.066-.325.326-.456.26-.097.553-.032.65.13.13.196.39.326.586.326.228 0 .195-.13-.098-.325-.422-.26-.39-.326.098-.326.325 0 .488-.162.39-.325-.097-.195.065-.325.39-.325.359 0 .782-.163 1.01-.39.227-.229.39-.261.39-.099 0 .163.227 0 .488-.357.26-.39.91-.781 1.496-.911.878-.163.976-.293.813-.976-.227-.911.098-1.269.781-.846.26.163.683.098 1.041-.098.78-.488.748-1.008-.032-.78-.553.13-.586.065-.26-.456.195-.325.552-.618.78-.618.78 0 3.351-1.431 3.351-1.854 0-.39.228-.488.878-.39.098 0 .326-.196.488-.489.163-.292.456-.423.651-.325.228.163.293.065.195-.228-.13-.292.065-.488.52-.488 2.115-.162 3.059-.325 2.929-.488-.066-.13.455-.227 1.17-.227.88-.033 1.237.097 1.107.325-.163.228.065.293.65.13.586-.13.814-.098.684.13-.098.163.032.326.292.326s.586-.163.716-.358c.098-.196.553-.26.976-.163.618.163.716.098.553-.358-.195-.488-.13-.52.293-.163.39.293.716.326 1.431.066.63-.239.727-.152.293.26-.358.358-.748.585-.878.52-.13-.097-.293 0-.423.196-.358.585 2.277.357 2.96-.26.814-.749 1.757-.88 1.757-.229 0 .26-.098.456-.228.456-.162-.032-.488-.032-.748 0-.423.033-.39.098.033.358.325.195 1.04.26 1.626.195 1.171-.13 2.05.293 1.692.878-.13.196 0 .26.325.13.326-.097.553-.064.553.098 0 .163.293.26.65.228.359-.033.619-.195.521-.423-.097-.228.228-.358.814-.325.553.032.943.195.943.488 0 .26.228.358.65.26.359-.098.749-.033.847.13.097.163-.033.325-.26.325a20.39 20.39 0 0 1-1.237.13c-.455.033-.943-.065-1.073-.292-.163-.196-.228-.065-.13.39.097.39.032.65-.13.52-.163-.097-.293.033-.293.293 0 .326.227.423.65.326.358-.098.553-.326.423-.553-.13-.26-.065-.26.228.032.26.228.715.26 1.431.065.553-.162 1.041-.162 1.106 0 .033.13.456.195.879.098.455-.065 1.008.065 1.301.39.488.456.488.52.032.52-.292 0-.52.196-.52.391 0 .26-.163.195-.325-.13-.196-.325-.586-.456-.976-.358-.423.098-.65 0-.65-.26-.034-.325-.164-.26-.489.163-.358.455-.585.52-.91.26-.261-.228-.586-.228-.88-.065-.422.26-.39.358.13.748.391.293.554.65.424 1.008-.13.358-.033.52.325.52.456 0 .456.066-.097.489-.39.293-.456.455-.163.488.325 0 .325.195-.13.846-.293.455-.456 1.04-.358 1.269.065.227-.195.748-.65 1.17-.424.391-.716.782-.651.847.162.162 1.594-.619 1.886-1.041.163-.228.26-.196.26 0 0 .195-.422.715-.975 1.138-.52.456-.944 1.074-.976 1.367 0 .357-.26.585-.65.585-.814 0-.814.293-.066.846.347.282.347.434 0 .455-.325 0-.748.293-.976.65-.228.359-.585.652-.813.652-.228 0-.423.13-.423.325 0 .163-.39.52-.878.78-.52.294-.684.521-.423.521.39 0 .358.098-.098.358-.293.163-.683.228-.846.13-.195-.097-.488.098-.683.39-.325.521-.358.521-.195.033.097-.325.032-.65-.13-.748-.293-.163-.423.162-.39.813 0 .098-.521.13-1.172.13-.65-.032-1.301.098-1.399.26-.097.163-.65.326-1.203.358-.586.033-1.041.163-1.041.293 0 .163-.163.26-.358.26-.163 0-.228-.162-.098-.39s.098-.26-.163-.13c-.195.13-.292.39-.195.553.13.163-.195.293-.715.325-.608.022-.553.13.162.326.618.195 1.041.52 1.074.878 0 .456.065.456.227.065.26-.586 1.204-.618 1.725-.098.325.326.26.456-.228.651-.325.13-.78.456-1.009.716-.325.455-.455.455-.813.065-.358-.39-.358-.423.065-.228.26.13.196 0-.13-.26-.358-.293-.846-.52-1.073-.52-.228 0-.326-.196-.228-.489.13-.26.032-.488-.195-.488-.196 0-.26.13-.163.326.098.195-.033.227-.293.13-.293-.098-.52-.065-.52.13s.488.455 1.073.586c.911.195.944.26.39.455-.455.163-.878.065-1.333-.358-.358-.358-.781-.52-.879-.39-.13.097-.227.032-.227-.163 0-.228-.488-.39-1.139-.39-.65 0-1.139.13-1.139.325 0 .163.293.325.651.325.358 0 .65.163.65.358 0 .163-.26.293-.552.26-.326-.032-.879.066-1.204.196-.325.162-.943.293-1.366.293-.423.032-.846.162-.976.292-.13.13-.618.13-1.074.065-.455-.097-.618-.065-.358.065.26.098.65.423.879.716.195.293.813.52 1.334.553.748 0 1.106-.195 1.398-.813.326-.716.423-.748.52-.26.099.39.456.553 1.172.553 2.212 0 3.253.195 3.383.553.098.227-.13.455-.455.455-2.18.13-2.733.26-3.188.618-.293.228-.423.65-.358.879.13.325.032.422-.423.26-.358-.098-.716-.033-.846.162-.097.163-.455.326-.748.293-.456 0-.456-.065.097-.26.521-.228.456-.293-.455-.455-1.171-.228-2.635 0-2.635.422 0 .326-.488.228-1.627-.26-.715-.293-.455-.553.423-.423.13 0 .228-.065.228-.195 0-.163.748-.293 1.627-.293.91-.032 1.626.033 1.626.163 0 .26 1.855.26 2.115-.032.293-.293-1.041-.619-2.733-.684-.683-.032-1.204-.162-1.106-.292.163-.326-1.561-.13-2.115.195-.227.13-.943.162-1.626.065-.65-.13-1.432-.065-1.692.13-.358.26-.228.293.488.13l.976-.228-.716.716c-.39.358-.845.683-.976.683-.13.033-.813.293-1.529.618-1.106.52-1.17.618-.52.781.39.098.618.325.488.52-.13.26-.39.26-.813.033-.651-.358-1.627-.13-2.017.456-.163.227-.26.227-.26-.066 0-.553-.489-.487-1.107.13-.293.26-.65.424-.846.293-.195-.097-.227.033-.13.293.163.39-.032.52-.65.52-.781 0-.814.066-.52.651.292.52.26.651-.196.651-.423 0-.456.098-.13.488.553.683.032.618-.748-.065-.488-.488-.619-.488-.553-.098.162.976 0 1.367-.488 1.171-.26-.097-.489 0-.489.228s-.292.586-.65.814c-.39.227-.586.553-.456.748.098.195-.097.423-.455.52-.358.098-.748.358-.846.618-.228.618.65.976 1.204.488.325-.227.553-.162.976.293.293.358.39.716.227.814-.195.13-.325.032-.325-.196 0-.26-.097-.293-.423 0-.26.195-.553.26-.683.13s-.13 0 0 .326c.098.293.456.553.748.553.39 0 .553.26.52.943 0 .521-.064.911-.13.814-.064-.066-.357.065-.617.292-.423.326-.456.293-.26-.065.195-.26 0-.227-.586.13-.781.521-1.269 1.106-.52.651.747-.455.227.586-.651 1.366-.553.423-.911.944-.814 1.074.098.163.033.358-.162.488-.618.39-.326.878.423.716.455-.13.488-.044.097.26-.358.26-.52.488-.39.488.162 0 .13.195-.033.39-.52.749-.293 1.399.553 1.497.651.065.716.032.326-.228-.26-.195-.358-.358-.196-.358.163 0 .098-.195-.097-.423-.423-.553-.13-.878.748-.846.586.033.586.065-.13.293-.456.13-.65.26-.456.293.651.065.781 1.301.196 1.659-.488.26-.488.293.032.325.326 0 .52.131.39.293a.367.367 0 0 0 .13.488c.163.098.359-.032.456-.26.228-.586 2.147-.618 2.83-.033.293.228 1.107.326 2.05.228 1.269-.097 1.562-.228 1.431-.683-.097-.423.098-.488 1.302-.39 1.106.065 1.366 0 1.236-.358-.13-.358.065-.423.878-.326 1.302.131 3.709-.683 3.579-1.236-.033-.195.065-.293.26-.162.163.097.39 0 .488-.228.098-.228.586-.456 1.139-.488.976-.065 3.383-1.171 3.708-1.692.098-.13.976-.683 1.985-1.138.976-.488 1.79-1.042 1.79-1.204 0-.163.227-.293.487-.293s.488-.13.488-.325c0-.163.52-.553 1.139-.846.618-.293 1.04-.651.943-.813-.097-.163.13-.293.52-.293.358 0 .911-.293 1.204-.65.326-.359.749-.651.976-.651.228 0 .423-.163.423-.358 0-.163.553-.553 1.204-.814.78-.325 1.04-.585.78-.748-.487-.325.033-.813 1.367-1.301.748-.293.846-.456.586-.944-.228-.455-.196-.585.292-.585.326 0 .52.13.423.293-.097.162.13.13.52-.066.359-.227.684-.455.684-.552 0-.098-.195-.066-.39.064-.228.13-.065-.13.358-.552.618-.619 1.138-.781 2.244-.781 1.757.032 5.4-.586 5.108-.879-.13-.097-.683-.13-1.237-.065-.585.065-.845.033-.618-.065.196-.097.326-.325.196-.488-.228-.39-.033-.358 1.398.195 1.822.716 3.091.846 3.644.39.39-.325.423-.292.228.033-.195.326-.033.39.65.293 1.92-.325 2.636-.91 1.627-1.301-.26-.098-.65.032-.846.293-.227.26-.585.455-.78.455-.196 0 .097-.358.618-.813.553-.456.78-.781.52-.814-.26 0-.39-.065-.325-.162.097-.065.846.065 1.724.325.846.26 1.692.423 1.887.39.195-.032.423.13.488.326.195.488-.358.553-1.204.098-.423-.228-.618-.196-.78.162-.163.456.552.683 1.528.52.814-.13 1.074-.26 1.464-.682.26-.26.358-.326.26-.13-.162.357.619.943 1.14.845.097 0 .715.098 1.366.26 1.138.228 1.691-.065.813-.422-.326-.13-.326-.196-.033-.196.228-.032.326-.227.228-.488-.098-.26-.032-.553.163-.683.227-.13.26.033.13.39-.195.554-.163.554.423.066.943-.814 5.368-.488 4.847.358-.065.13-.52.227-.976.227-.423 0-.716-.097-.65-.26.097-.13.032-.325-.163-.456-.163-.097-.325-.065-.325.098s-.424.39-.944.456c-.683.097-.91.032-.78-.293.13-.293 0-.358-.359-.228-.292.098-.422.358-.292.553.097.195.032.228-.163.098-.228-.13-.39-.065-.39.097 0 .196.26.358.585.358.325 0 .78.195 1.009.39.358.358.39.326.195-.032s-.13-.423.293-.26c.325.13.943.227 1.366.227.488 0 .78.196.78.52 0 .391.228.456.977.294.846-.195.976-.13.976.423 0 .358-.196.748-.39.846-.228.13-.066.13.357.064.423-.097 1.074 0 1.432.196.488.26.845.162 1.594-.39.52-.391 1.106-.619 1.334-.521.227.065.064.26-.358.39-.423.13-.684.39-.586.618.098.26-.065.52-.325.618-.846.326.13 1.432 1.106 1.237.553-.098.748-.033.585.227-.13.196 0 .358.293.358.39 0 .488-.162.358-.52-.163-.423-.065-.456.358-.26.325.13 1.106.26 1.757.292.813 0 1.138.13 1.041.39a.772.772 0 0 1-.651.424c-.26 0-.39.097-.293.26.065.13-.423.195-1.106.13-1.008-.098-1.301 0-1.594.553-.293.553-.293.65.098.488.78-.293 1.886.488 1.659 1.171-.163.488-.065.586.455.488.358-.065.944-.26 1.236-.455.369-.217.347-.337-.065-.358-.585-.033-2.114-1.041-2.114-1.399 0-.098.293-.098.65 0 .358.098.553.325.456.488-.13.195.13.26.553.195.423-.065.943.065 1.106.293.228.26.488.293.813.097.391-.227.391-.39.065-.715-.553-.553-.488-.781.293-.781.456 0 .618.163.521.586-.163.618.26.813.585.26.098-.195.358-.325.553-.325.586 0-.78 1.106-1.952 1.594-.878.39-.976.52-.65.943.358.423.325.456-.293.13-.976-.553-1.334-.488-.553.098.412.303.401.466-.033.488-.488 0-.553.065-.195.293.553.357-.097.813-.683.52-.228-.13-.13.033.195.293.358.293.911.455 1.236.325.391-.097.586 0 .586.325 0 .293-.098.488-.228.488-.846-.13-1.138.131-.455.391.585.228.878.195 1.041-.098.195-.293.423-.325.781-.097.618.39.683.976.097.976-.846 0-.39.976.553 1.171.879.195.911.228.163.26l-.813.065.813.456c.976.553 1.952.618 1.952.13 0-.163-.13-.261-.293-.13a.368.368 0 0 1-.488-.131c-.26-.422 1.009-.65 1.399-.26.26.26.358.26.358-.032 0-.228.228-.391.488-.391.52 0 .781-.781.943-2.83.098-1.171 0-1.399-.585-1.496-.434-.087-.412-.152.065-.196.878-.032.911-.39.097-1.366-.618-.78-1.952-1.041-2.375-.456-.13.196-.26.066-.26-.26 0-.358.293-.683.651-.78.358-.098.553-.326.423-.521-.098-.195-.033-.228.195-.098.195.13.293.39.195.553-.13.163 0 .293.293.293.26 0 .683.098.976.195.293.098.52.033.52-.162s-.227-.358-.52-.358c-.26 0-.39-.163-.293-.325.098-.196.586-.326 1.041-.326.488 0 .781-.065.716-.162-.163-.163-5.238-.619-6.995-.619-.878 0-.976-.097-.845-.845.162-.814.618-1.302 1.203-1.302.195.033.065.163-.26.358-.293.195-.488.488-.39.65.13.163.358.228.52.13.163-.13.391.033.488.326.195.423.26.456.488.098.228-.325.293-.358.293 0 0 .228.163.325.325.228.195-.13.261-.326.163-.488-.195-.293 1.139-.033 1.627.358.195.13.878.325 1.561.455.976.195 1.204.13 1.204-.26 0-.26.097-.716.195-.976.098-.326-.098-.586-.586-.749l-.748-.227.813-.293.781-.293-.943-.846c-.586-.553-.781-.91-.521-1.008.261-.098.033-.52-.65-1.236-.586-.619-.976-1.204-.846-1.334.13-.098 0-.488-.326-.814-.292-.325-.39-.585-.227-.585.162 0-.065-.228-.456-.52-.39-.26-.65-.619-.553-.749.065-.162-.26-.683-.748-1.204a38.236 38.236 0 0 1-1.757-2.05c-.715-.943-.943-1.073-1.334-.715-.357.26-.553.293-.715.033-.13-.195-.098-.326.065-.293.65.098.748-.065.293-.52-.261-.26-.586-.489-.716-.489s-.683-.39-1.204-.91c-.65-.586-1.008-.749-1.106-.488-.228.585-.976.52-1.204-.098-.162-.456-.13-.488.293-.13.358.293.488.293.488.032 0-.422-1.301-1.008-1.724-.78-.13.065-.163.292-.065.455.13.163-.13.293-.553.325-.423 0-1.074.066-1.497.098-.52.065-.683-.032-.585-.358.227-.553-.586-.91-1.171-.553-.228.163-.781.325-1.237.39-.455.033-1.04.163-1.3.293-.261.098-.75.163-1.107.13-.358-.065-.52.066-.39.26.358.554-.326.424-.814-.162-.227-.26-.683-.423-1.008-.358-.326.098-.65.033-.748-.13-.26-.39-1.497.423-1.334.878.097.228-.098.358-.39.326-.293-.065-.586-.26-.651-.456-.065-.228-.423-.195-1.139.098-.585.228-1.106.455-1.204.488-.097.032-.553-.098-1.04-.293-.684-.26-.912-.228-.912.033 0 .195-.097.26-.227.13s-.26-.488-.26-.748c0-.293-.196-.586-.456-.684-.26-.065-.358 0-.26.163.097.163-.098.293-.423.293-.325 0-.52-.195-.423-.423a.77.77 0 0 1 .65-.423c.293 0 .424-.195.293-.488-.097-.26-.032-.488.163-.488.163 0 .683-.325 1.139-.748.748-.716.78-.814.292-1.204-.455-.358-.585-.358-.813-.032-.13.26-.423.325-.618.195-.228-.13-.585-.033-.846.162-.325.26-.488.293-.488.065 0-.195.293-.455.683-.553.456-.162.618-.423.521-.846-.098-.325 0-.552.228-.52.195.032.325-.26.26-.683-.065-.488.163-1.009.585-1.367.39-.325.619-.78.489-.943-.196-.358.162-.455 1.366-.358.553.033.683-.097.553-.455-.098-.293-.033-.52.195-.52.195 0 .26-.163.163-.326-.098-.195-.033-.325.162-.325.196 0 .26-.163.13-.358-.097-.196-.487-.293-.813-.196-.813.228-.78.098.13-.78l.716-.716-1.04.195c-.587.13-1.075.098-1.107-.032 0-.13-.065-.553-.163-.976-.097-.488.033-.716.358-.716.26 0 .456.163.423.358-.065.228.325.488.813.65.716.196.846.163.586-.162-.195-.228-.26-.52-.13-.618.097-.13 0-.618-.228-1.074-.39-.715-.39-.878 0-1.106.358-.228.228-.325-.488-.325-.878-.033-.91-.065-.26-.326.846-.357 1.334-1.594.716-1.984-.228-.13-.554-.163-.749-.065-.162.13-.195.032-.065-.195.163-.26.098-.39-.162-.326-.26.033-.814.033-1.27-.032-.747-.033-.747-.065-.162-.293.358-.163.846-.195 1.074-.13.195.098.39 0 .39-.195a.361.361 0 0 0-.358-.358c-.195 0-.293-.228-.162-.488.097-.26-.033-.65-.26-.878-.228-.228-.359-.619-.26-.879.097-.26 0-.358-.196-.227-.195.097-.423.064-.553-.13-.098-.163.032-.326.293-.326.292 0 .52-.13.52-.325 0-.358-1.301-1.627-1.692-1.627-.13 0-.26-.358-.26-.813 0-.586-.227-.911-.813-1.139-.911-.358-1.106-.716-.228-.455.293.097.13-.163-.423-.65-.52-.456-1.236-.847-1.529-.847-.293 0-.65-.162-.748-.325-.098-.195-.032-.325.163-.325s.26-.163.162-.326c-.292-.488-1.366-.39-1.919.195-.325.326-.52.358-.52.13 0-.227-.228-.325-.489-.227-.26.13-.553.065-.65-.098-.195-.292.358-.455 1.399-.423.227.033.358-.13.293-.358-.066-.195-.944-.39-2.017-.455-1.074-.032-2.017-.26-2.18-.488-.228-.358-.39-.098-.293.488 0 .163-.13.26-.293.26-.195 0-.325-.162-.325-.358 0-.26-.195-.227-.553.066-.358.292-.456.292-.325.065.162-.228 0-.553-.39-.781-.326-.228-.554-.618-.456-.846.097-.228 0-.423-.195-.423-.326 0-.488.423-.39 1.041 0 .13-.196.163-.456.065-.358-.163-.39-.325-.13-.846.26-.52.26-.618-.033-.423-.26.163-.358.098-.26-.195.097-.26.488-.618.878-.813 1.269-.65 1.497-1.074.586-.976-.488.065-.781-.033-.683-.163.097-.162.488-.293.878-.293s1.008-.227 1.334-.487c.585-.456.585-.489.032-1.367-.423-.65-.455-.78-.097-.52.26.227.585.292.715.162.13-.13.39-.26.553-.26.163-.032.456-.065.619-.098.195 0 .325-.325.325-.715 0-.39-.13-.586-.358-.423-.228.13-.325.032-.228-.228.098-.26.456-.488.879-.553.715-.097 2.7-1.041 2.212-1.041-.13 0-.065-.325.13-.748.325-.618.325-.65-.065-.358-.586.455-1.984.813-1.724.423.097-.163.358-.293.618-.293.423 0 1.008-1.204.716-1.496-.098-.098.162-.521.553-.944.455-.52.78-.65 1.04-.455s.456.13.586-.196c.098-.26 0-.488-.228-.52-.227 0-.097-.13.26-.293.586-.26.554-.293-.227-.293-.52-.032-.91-.195-.91-.39 0-.163.162-.228.357-.13.163.13.585-.098.91-.456.326-.39.814-.683 1.042-.683.325.033.293.13-.098.358-.683.39-.78.944-.13.944.228 0 .683-.39 1.009-.846.358-.553.39-.748.13-.586-.26.13-.13-.162.293-.65.878-1.172.91-1.464.032-1.757-.65-.26-.65-.293-.13-.846.325-.293.488-.65.358-.748-.228-.228.423-1.074.813-1.074.163 0 .293.26.325.553 0 .488.066.488.26-.065.163-.358.456-.65.716-.65.228 0 .488-.26.553-.619.098-.358 0-.52-.227-.39-.195.13-.358.032-.39-.195 0-.228-.13-.098-.293.293-.163.422-.456.748-.651.748-.423 0-.423-.553 0-.814.195-.13.26-.325.163-.488-.098-.162-.033-.357.13-.455.162-.098.227-.488.13-.846-.098-.358-.033-.65.097-.65.163 0 .326-.358.326-.814.032-.455.325-1.073.683-1.399.325-.292.455-.455.228-.292-.195.13-.553 0-.814-.326-.26-.293-.293-.455-.065-.325.553.325.911-.39.423-.846-.26-.228-.325-.26-.228-.032.098.195 0 .357-.227.357-.26 0-.39-.195-.293-.455a.77.77 0 0 1 .65-.423c.293 0 .359-.163.228-.423-.162-.26-.097-.26.293.065.293.228.456.553.358.716-.098.163.032.293.293.293.813 0 .488-1.464-.358-1.562-1.009-.162-.813-1.203.195-1.171.78.032.976-.358.325-.65-.325-.163-.325-.228 0-.391.488-.228.52-.813.033-.716-.195.065-.456-.13-.52-.39-.098-.325-.066-.358.13-.098.195.26.422.293.748.065.39-.227.358-.325-.228-.488-.78-.227-1.171-1.203-.683-1.691.358-.358.065-1.139-.325-.911-.13.065-.456-.098-.716-.39-.423-.456-.39-.489.097-.293.358.13.553.032.553-.293 0-.26-.13-.39-.325-.293-.163.098-.325-.098-.325-.455 0-.39-.163-.651-.358-.619-.195.066-.39-.422-.455-1.04-.066-.716-.358-1.302-.781-1.595-.39-.227-.683-.618-.683-.878 0-.748-1.497-2.082-2.375-2.082-.456 0-.944-.163-1.041-.325a.664.664 0 0 0-.52-.326c-.196 0-.261.13-.163.293.13.163-.098.228-.456.13-.65-.162-.943-1.073-.325-1.073.195 0 .325.162.325.358 0 .26.13.26.423 0 .325-.26.553-.228.878.065.26.195.228.065-.097-.293-.423-.488-.846-.65-1.562-.586-.52.065-.878 0-.78-.162.097-.163 0-.423-.196-.553-.26-.13-.293-.098-.162.13.292.488-.163.488-1.334 0-1.041-.423-1.236-.488-1.79-.553-.325-.033-.325-.098 0-.326.293-.162-.032-.26-.91-.26-.944 0-1.237.098-.911.293Zm.91.976c0 .195-.097.26-.227.162-.325-.325-2.082 1.432-1.822 1.822.13.195-.228.26-.91.163-1.237-.195-1.92-.033-1.92.423 0 .195.13.26.26.162.163-.097.52.098.78.456.489.553.489.618 0 .813-.292.098-.585.033-.65-.13-.065-.195-.455-.358-.91-.358-.554 0-.716.13-.586.488.13.293 0 .488-.326.488-.292 0-.52-.13-.52-.293 0-.195-.52-.227-1.204-.13l-1.17.195.682-.683c.358-.358 1.074-.715 1.594-.78.52-.066.879-.26.846-.521-.065-.195.195-.39.52-.39.358 0 .749-.163.846-.326.26-.39.293-.423-1.496.13-1.464.456-3.058.358-3.383-.162-.098-.13.227-.195.683-.098.585.109.694-.108.325-.65-.423-.684-.455-.781-.032-.651.26.13.488.358.488.585 0 .196.162.13.325-.13.26-.423.325-.39.325.065 0 .423.26.586.976.586.553 0 .976-.163.976-.325 0-.228.26-.196.748.032 1.237.683 2.278.553 3.286-.423 1.041-.976 1.497-1.138 1.497-.52Zm2.7.227c.294.033.521.196.489.423-.098.358.032.423 1.138.553.26.033.26.13-.097.358-.325.196-.65.13-1.009-.195-.26-.228-.715-.455-.976-.455-.39 0-.39.065 0 .292.326.196-.032.293-1.04.293-.847 0-1.53-.13-1.53-.293 0-.195-.195-.227-.39-.13-.228.13-.163 0 .163-.26.325-.26.878-.39 1.268-.293.456.098.618.033.488-.195-.13-.195 0-.293.326-.228.325.065.846.13 1.17.13ZM47.915 3.644c-.195.52-.78.683-.78.227 0-.358.357-.715.682-.715.163 0 .195.227.098.488Zm19.389-.358c0 .097-.13.26-.325.358-.163.097-.326.032-.326-.13 0-.196.163-.358.326-.358.195 0 .325.065.325.13Zm-15.453.488c.098.162.065.39-.097.488-.163.097-.293-.033-.293-.293 0-.553.097-.618.39-.195ZM57.87 4c.26.26.292.456.13.423-.65-.097-1.139.065-.944.326.39.65-4.196 1.268-4.912.65-.26-.227-.553-.292-.683-.195-.098.13-.488.033-.879-.162-.91-.521-1.203-.521-2.18-.066-.682.358-.845.326-.845-.032 0-.228.228-.358.488-.228.293.098.423.033.293-.162-.13-.196 0-.456.292-.554.944-.357 2.018-.195 2.213.326.13.325.455.455.846.358.357-.098.585-.033.455.13-.195.325-.098.358 1.269.423 1.073.065.976-.52-.13-.814-.618-.195-.553-.227.423-.195.65 0 1.138.13 1.073.26-.325.521 1.497.163 1.985-.39.683-.748.618-.748 1.106-.098Zm8.458 0c0 .066-.293.13-.683.13-.358 0-.586-.13-.456-.325.163-.26 1.139-.097 1.139.195Zm.65 1.172c.326.65.293.683-.064.227-.293-.357-.814-.488-1.562-.423-1.008.098-1.041.065-.325-.162 1.301-.456 1.594-.39 1.952.358Zm1.627-.39c-.26.162-.618.325-.813.325-.163 0-.098-.163.163-.326.26-.162.65-.325.813-.325.195 0 .098.163-.163.325Zm4.262.227c-.325.13-.325.228-.032.423.195.13-.066.228-.619.195-.91-.032-.943-.065-.455-.455.293-.196.78-.39 1.04-.358.391 0 .424.065.066.195Zm-33.964.488c.196-.488 1.074-.52 1.074-.033 0 .163-.13.228-.325.13-.163-.097-.326-.065-.326.098 0 .488.976.748 1.757.52.553-.162.618-.13.293.228-.325.326-.78.358-2.115.065-1.399-.292-1.756-.26-1.984.098-.13.26-.716.455-1.302.423-.585 0-.845-.098-.618-.195.196-.065.326-.293.228-.423-.098-.163-.032-.358.163-.488.163-.098.325-.065.325.13s.228.26.488.163c.26-.13.423-.326.325-.456-.26-.455.619-.585 1.27-.195.455.26.65.26.747-.065Zm5.303-.098c0 .163-.26.228-.618.13-.325-.097-.716 0-.813.196-.293.455-.846.455-.846 0 0-.163.163-.228.325-.13.195.097.326.032.326-.13 0-.196.357-.358.813-.358.455 0 .813.13.813.292Zm-3.09.358c-.098.163-.326.326-.52.326-.164 0-.294-.163-.294-.326 0-.195.228-.325.52-.325.261 0 .391.13.294.325Zm23.065.195c.163.456.13.488-.293.13-.553-.455-.618-.65-.195-.65.163 0 .39.228.488.52Zm12.362-.032c.13.325-.032.488-.455.488-.358 0-.651-.163-.651-.358 0-.163.163-.228.325-.13.196.097.326.032.326-.13 0-.52.227-.423.455.13Zm-24.334.228c.13.227.065.26-.13.13-.228-.13-.683 0-1.074.26-.683.488-1.724.358-1.431-.163.098-.13.39-.195.65-.065.26.098.489.033.489-.13 0-.423 1.236-.455 1.496-.032Zm-18.088.618c0 .162-.195.292-.423.292-.228 0-.91.456-1.529 1.009-1.106 1.008-1.106 1.041-.39 1.301.943.358.91.488-.163.423-.52-.032-1.106-.097-1.334-.097-.26-.033-.39-.228-.292-.456.065-.195.39-.358.715-.293.293.065.456-.032.358-.195a.348.348 0 0 1 .195-.488c.228-.097-.065-.26-.618-.39-1.04-.228-1.496-.716-.65-.716.227 0 .845-.097 1.366-.195.629-.152.737-.054.325.293-.585.488-.585.52-.065.325.326-.098.748-.195.911-.195.163 0 .293-.293.293-.618 0-.456.163-.586.65-.456.358.098.651.293.651.456Zm25.375.292c.358.228.358.326.065.326-.227 0-.325.13-.227.325.292.488-.586.39-1.822-.163-.944-.455-.976-.488-.228-.325.488.098.976.033 1.074-.163.26-.39.52-.39 1.138 0Zm-10.41.13c0 .098-.13.26-.325.358-.163.098-.326.033-.326-.13 0-.195.163-.358.326-.358.195 0 .325.066.325.13Zm2.277.196c.39.26.358.325-.227.325-.423 0-.749-.163-.749-.325 0-.423.358-.423.976 0ZM36.658 8.1c.195.032.39.162.39.325 0 .26-1.627.293-2.668.032-1.106-.26-.585-.748.651-.585.65.097 1.399.195 1.627.228Zm41.706-.066c0 .163-.163.326-.358.326-.163 0-.228-.163-.13-.326.097-.195.26-.325.358-.325.065 0 .13.13.13.325Zm-40.177.684c-.13.162-.39.292-.586.26-.293 0-.26-.065.033-.195.195-.065.292-.326.195-.488-.13-.228-.065-.26.163-.13.195.13.292.39.195.553Zm1.561-.13c-.227.065-.618.065-.813 0-.228-.098-.065-.163.39-.163.456 0 .618.065.423.163ZM25.857 9.857c-.098.26-.032.456.13.456a.326.326 0 0 0 .326-.326c0-.195.162-.325.325-.325.195 0 .325.228.325.488a.5.5 0 0 1-.488.488c-.26 0-.488.13-.488.293 0 .325-2.83.228-3.155-.098-.326-.325.422-.91 1.268-.976.423-.032.716-.227.683-.423-.032-.195.196-.292.586-.195.39.098.586.358.488.618Zm8.49-.65c-.097.097-.39.13-.617.032-.26-.097-.163-.195.195-.195.358-.033.553.065.423.163Zm38.063.65c-.097.098-.39.13-.618.033-.26-.098-.162-.195.196-.195.358-.033.553.065.422.162Zm.749 1.302c0 .097-.195.065-.39-.033-.228-.13-.13.033.195.293.488.39.52.52.162.52-.618 0-1.269-.65-1.269-1.203 0-.358.163-.358.651-.098.358.195.65.423.65.52Zm-42.715-.326c-.098.098-.39.13-.618.033-.26-.098-.163-.195.195-.195.358-.033.553.065.423.162Zm46.521.325c.065.196-.098.358-.39.358a.5.5 0 0 1-.488-.488c0-.488.715-.39.878.13Zm.098 1.92c0 .455-.163.813-.358.813-.163 0-.228-.162-.13-.325.097-.195.032-.325-.163-.325-.228 0-.195-.163.065-.488.553-.619.586-.619.586.325Zm.78.683c.098.26.066.39-.13.293a.618.618 0 0 1-.325-.52c0-.456.228-.359.455.227Zm-3.058.586c0 .357-.618.488-.813.195-.097-.163.033-.325.293-.325.293 0 .52.065.52.13Zm3.351 1.073c-.227.065-.683.065-.976 0-.325-.097-.13-.162.39-.162.554 0 .781.065.586.162Zm2.18.098c0 .162-.163.325-.358.325-.163 0-.228-.162-.13-.325.097-.195.26-.325.358-.325.065 0 .13.13.13.325Zm-3.579.65c0 .163-.065.326-.13.326-.097 0-.26-.163-.358-.325-.097-.196-.032-.326.13-.326.196 0 .358.13.358.326Zm.26 3.514c.066.228-.097.39-.39.39a.514.514 0 0 1-.52-.52c0-.553.715-.456.91.13Zm-5.465 9.987c0 .39-.618.39-.748 0-.13-.293-.033-.39.293-.26.227.098.455.228.455.26Zm5.53.553c0 .13-.13.26-.292.26-.195 0-.39-.13-.488-.26-.098-.162.032-.292.293-.292.26 0 .488.13.488.292Zm-9.108 5.628c0 .066-.326.293-.716.488-.716.358-.716.326-.13-.13.683-.553.846-.618.846-.358Zm-3.09 1.14c.097.162.032.324-.131.324-.195 0-.358-.162-.358-.325 0-.195.065-.325.13-.325.098 0 .26.13.358.325Zm-1.628 5.855c.13.195-.065.293-.455.228-.943-.13-1.269-.553-.423-.553.358 0 .78.162.879.325Zm1.464 5.53c0 .163-.162.326-.357.326-.163 0-.228-.163-.13-.326.097-.195.26-.325.357-.325.065 0 .13.13.13.325Zm-12.2.293c.413.174.37.347-.13.52-.52.163-.845.098-1.04-.195-.26-.39-.358-.357-.618.033-.163.26-.326.325-.326.13 0-.78.846-.976 2.115-.488Zm13.176.358c0 .163-.162.325-.358.325-.162 0-.227-.162-.13-.325.098-.195.26-.325.358-.325.065 0 .13.13.13.325Zm-1.333.423c.26.325.227.455-.066.455a.445.445 0 0 1-.455-.455c0-.228.033-.423.065-.423.065 0 .26.195.456.423Zm-13.469.586c-.13.162-.618.487-1.073.65-.684.26-.749.39-.39.618.39.26.357.326-.13.326-.359 0-.912-.26-1.27-.586-.618-.52-.65-.52-.455.032.163.488.033.553-.91.423-.619-.065-1.27-.227-1.465-.357-.585-.358-.065-.716.911-.553.52.065 1.074-.033 1.171-.228.163-.228.488-.228 1.041-.033.586.228 1.074.195 1.692-.162 1.073-.553 1.139-.586.878-.13Zm16.429.13c0 .065-.293.097-.618.065-.358 0-.586-.163-.488-.293.13-.195 1.106 0 1.106.228Zm-29.474.52c-.098.163-.325.228-.488.098-.163-.098-.228-.326-.098-.488.098-.163.326-.228.488-.098.163.098.228.325.098.488Zm24.757.293c.097.163.032.325-.13.325-.196 0-.358-.162-.358-.325 0-.195.065-.325.13-.325.098 0 .26.13.358.325Zm-18.055.325c.357.26.26.293-.456.195-.52-.097-1.009-.26-1.106-.357-.325-.293 1.073-.163 1.562.162Zm25.7.13c0 .065-.293.196-.65.293-.359.098-.586.033-.456-.13.162-.293 1.106-.423 1.106-.163Zm-37.184.684c0 .26-.13.39-.293.292-.163-.097-.195-.325-.098-.488.293-.423.39-.358.39.196Zm7.677 0c-.097.292-.26.422-.358.357-.097-.097-.358-.032-.618.163-.227.195-.423.26-.423.13s-.195-.065-.455.13c-.26.228-.716.26-1.171.098-.618-.228-.65-.325-.228-.488.293-.098.618-.065.748.13.13.228.39.163.716-.13.325-.26.846-.553 1.204-.65.357-.066.683-.163.715-.196.033 0 0 .195-.13.456Zm5.596.357c.358-.065.943 0 1.301.163.553.195.52.26-.325.293-.52.032-1.302.097-1.692.13-.39.032-.813-.13-.878-.358-.098-.26-.033-.358.13-.26.195.097.325 0 .325-.228 0-.325.065-.325.26-.032.13.227.553.357.879.292Zm17.567-.195c-.13.195.033.325.325.325.293 0 .456.13.358.293-.13.163-.097.358.033.456.163.065.032.032-.228-.033-.26-.097-.846-.162-1.269-.162-.585.032-.65-.033-.325-.26.358-.228.293-.294-.26-.294-.423 0-.748.13-.748.293 0 .163-.228.39-.521.488-.456.163-.488.13-.13-.292.358-.423.26-.456-.683-.293-.944.13-1.009.097-.52-.195.325-.228.878-.326 1.235-.228.326.097.684.065.749-.033.065-.13.585-.26 1.138-.293.586-.032.944.066.846.228Zm7.483.26c-.098.098-.358 0-.586-.227-.293-.326-.26-.358.195-.163.325.098.488.293.39.39Zm-2.278.39c-.097.163-.358.326-.52.326-.196 0-.228-.163-.13-.325a.664.664 0 0 1 .52-.325c.195 0 .228.13.13.325Zm-33.996.326c.098.033.52.065.976.033.586-.033.683.032.358.227-.293.228-.325.39-.065.52.195.131.358.359.358.554 0 .488-.879.325-1.464-.228-.39-.423-.618-.455-.911-.162-.195.195-.65.357-1.009.357-.553 0-.585-.065-.195-.292.26-.196.586-.228.716-.163.13.098.26 0 .26-.163 0-.195-.358-.358-.813-.358-.456 0-.813-.13-.813-.292 0-.228 2.114-.26 2.602-.033Zm5.79.39c-.422.326-1.04.586-1.398.586l-.65.033.65.26c.358.163.78.195.943.097.163-.065.228.033.163.228-.098.228-.228.358-.325.293-.098-.065-.423.098-.716.325-.325.293-.553.326-.716.065-.097-.195-.358-.26-.52-.162-.163.13-.293-.098-.293-.456 0-.715.293-.976 1.366-1.17.423-.099.781-.261.846-.424.033-.13.358-.26.748-.26.619 0 .619.032-.097.586Zm2.246-.52c-.098.098-.39.13-.618.033-.26-.098-.163-.196.195-.196.357-.032.553.065.423.163Zm25.798.78c0 .163-.358.326-.814.326-.455 0-.813.13-.813.325 0 .163-.163.326-.358.326-.748 0-.032-.813.879-1.009.52-.13.975-.227 1.04-.26.033 0 .066.098.066.293Zm4.326-.097c-.227.065-.618.065-.813 0-.228-.097-.065-.162.39-.162.456 0 .619.065.423.162Zm-27.587.423c-.097.163-.39.325-.585.325-.228 0-.196-.13.097-.325.618-.39.748-.39.488 0Zm19.682 0c.39.26.293.325-.39.325-.52 0-.911-.162-.911-.325 0-.423.65-.423 1.301 0Zm-23.358.228c-.39.065-.65.293-.553.455.13.163.032.293-.13.293-.39 0-.456-.423-.13-.748.097-.13.52-.195.878-.195.412.043.39.108-.065.195Zm-11.094.52c-.195.26-.292.553-.195.684.098.097-.032.032-.227-.13-.326-.293-.326-.424.065-.651.683-.423.78-.39.357.097Zm3.189.423c.325.293-1.139.098-1.594-.195-.358-.26-.228-.293.488-.13.553.13 1.04.26 1.106.325Zm9.954-.195c.358.553-.162 1.009-.618.553-.455-.39-.39-.878.13-.878.163 0 .39.13.488.325Zm20.268.293c.488-.423.52-.39.098.097-.293.423-.684.521-1.302.39-1.138-.292-1.366-.455-1.17-.812.13-.163.552-.066 1.008.227.65.456.878.456 1.366.098Zm7.027-.13c.098.26.098.488 0 .488s-.39-.228-.65-.488c-.424-.423-.424-.488-.033-.488.26 0 .553.227.683.488Zm-41.446.488c0 .13.456.423 1.009.65.683.293.878.488.553.683-.228.163-.651.033-1.009-.26-.488-.488-.553-.488-.39-.032.162.39 0 .488-.716.358-.65-.098-.78-.065-.456.162.293.228 0 .293-.976.26-.845 0-1.43.13-1.528.39-.066.229-.26.326-.39.229-.163-.098-.391-.033-.489.162-.13.196-.097.326.065.293.456-.13 2.7.423 2.863.683.228.358-2.57-.032-3.871-.52-.456-.163-.52-.033-.39.683.13.65.064.78-.228.553-.39-.325-1.432-.26-1.79.065-.097.098.13.195.52.195 1.042 0 .88.846-.26 1.269-.617.195-.975.553-.975.91 0 .619-.586 1.4-1.041 1.4-.13 0-.228-.325-.163-.716.033-.488-.195-.846-.748-1.139-.456-.227-.618-.422-.358-.422s.358-.196.228-.521c-.098-.26-.066-.39.13-.293.325.195 1.301-.553 1.301-.943 0-.098-.26-.195-.553-.228-.358 0-.423-.097-.163-.195.196-.065.326-.325.196-.52-.098-.228 0-.163.26.097.455.553.618.553 2.05.163 1.43-.39 1.658-.586.943-.879-.586-.228-.586-.26.032-.195.358.033 1.041-.065 1.562-.228.65-.162.813-.358.553-.65-.228-.293-.098-.488.488-.748.455-.196.813-.554.813-.781 0-.293.098-.26.325.065.196.325.326.358.326.065 0-.195.13-.39.26-.39.163 0 .293.227.293.52 0 .325-.228.455-.618.358-.358-.098-.586 0-.586.325 0 .26-.163.358-.39.228-.326-.163-.326-.13-.033.195.293.325.52.293 1.074-.098.39-.292.976-.422 1.268-.325.423.13.423.098.066-.162-.586-.423-.228-1.432.455-1.172.26.098.488.326.488.456Zm7.255-.423c-.228.065-.618.065-.814 0-.227-.098-.065-.163.39-.163.456 0 .619.065.424.163Zm23.553-.033c-.098.098-.39.13-.618.033-.26-.098-.163-.195.195-.195.358-.033.553.065.423.162Zm9.402.618c-.748.553-1.171.618-1.171.196 0-.163.325-.39.748-.456.39-.065.78-.163.878-.163.098-.032-.13.163-.455.423Zm-37.12.39c-.065.326-.13.619-.13.684-.032.032-.227-.098-.488-.325-.52-.488-.39-.911.293-.911.228 0 .39.26.326.553Zm40.828-.227c0 .163-.162.325-.357.325-.163 0-.228-.162-.13-.325.097-.195.26-.325.357-.325.065 0 .13.13.13.325Zm-33.345.65c.098.163.065.326-.13.326-.163 0-.423-.163-.52-.325-.098-.196-.066-.326.13-.326.162 0 .422.13.52.326Zm1.952 0c-.878.391-1.399.391-.813 0 .26-.162.715-.292.976-.292.325 0 .26.098-.163.293Zm1.952 0c-.098.163-.39.326-.586.326-.227 0-.195-.13.098-.325.618-.39.748-.39.488 0Zm-19.357.358c0 .163-.065.293-.13.293s-.358.098-.618.195a.505.505 0 0 1-.65-.292c-.13-.326.064-.488.617-.488.423 0 .781.13.781.292Zm9.76.098c-.228.228-.423.228-.65 0-.196-.195-.098-.325.325-.325.422 0 .52.13.325.325Zm4.327-.228c-.228.066-.684.066-.976 0-.326-.097-.13-.162.39-.162.553 0 .78.065.586.162Zm29.083-.032c-.097.097-.39.13-.618.032-.26-.097-.162-.195.195-.195.358-.032.553.065.423.163Zm-10.41.325c-.098.098-.39.13-.618.033-.26-.098-.163-.196.195-.196.358-.032.553.066.423.163Zm13.436.618c-.228.293-.488.423-.553.358-.195-.195.65-1.171.846-.976.065.065-.065.325-.293.618Zm2.928-.488c0 .163-.065.326-.13.326-.098 0-.26-.163-.358-.326-.098-.195-.033-.325.13-.325.195 0 .358.13.358.325ZM29.37 58.525c-.162.26-.032.293.39.13.456-.162.521-.13.229.163-.423.423-1.204.098-.911-.39.13-.163.26-.293.358-.293.097 0 .065.163-.066.39Zm1.92.39c-.13.554-.358.749-.976.749-.52 0-.596-.108-.228-.325.326-.195.748-.52.879-.781.39-.618.488-.52.325.358Zm3.156-.13c-.39.26-.326.326.325.359.455.032 1.04.032 1.301 0 .423-.066.423-.033 0 .26-.26.195-.878.358-1.366.358-.683 0-.911-.163-.911-.651 0-.39.228-.65.585-.65.456 0 .488.064.066.325Zm39.07.293c.13-.227.358-.325.489-.195.13.13.13.326.032.456-.325.293-2.18.358-1.984.032.097-.13 0-.26-.163-.26a.36.36 0 0 1-.358-.358c0-.228.358-.13.846.195.716.456.91.488 1.139.13Zm-40.274.066c-.26.26-.52.26-.976 0-.52-.293-.456-.326.39-.358.683 0 .846.097.586.358Zm12.297 1.04c-.325.293-.358.26-.163-.195.098-.325.293-.488.39-.39.098.098 0 .358-.227.586Zm12.33-.422c-.26.162-.618.325-.814.325-.162 0-.097-.163.163-.325.26-.163.65-.326.813-.326.196 0 .098.163-.162.326Zm6.409-.13c-.098.097-.39.13-.619.032-.26-.098-.162-.195.196-.195.357-.033.553.065.423.162Zm9.629 1.105c-.098.358-.325.749-.52.879-.196.13-.26 0-.13-.325.162-.423.032-.553-.521-.586-.456-.022-.423-.12.097-.293 1.204-.39 1.27-.39 1.074.325Zm-3.35-.195c0 .098-.13.26-.326.358-.163.098-.325.033-.325-.13 0-.195.162-.358.325-.358.195 0 .325.065.325.13Zm5.985.879c-.097.162-.716.293-1.366.293-1.074-.033-1.139-.066-.618-.456.585-.455 2.31-.325 1.984.163Zm-49.319.032c-.097.456-1.236.911-1.691.65-.228-.13.78-.715 1.691-1.008.033-.032.033.163 0 .358Zm6.8.033c.065.097-.26.13-.716.13-.456 0-.911-.13-1.009-.293-.162-.26 1.432-.13 1.725.163Zm2.7-.293c0 .098-.13.26-.326.358-.162.097-.325.032-.325-.13 0-.196.163-.358.325-.358.196 0 .326.065.326.13Zm27.164.195c-.098.163-.455.326-.748.326-.488 0-.488-.066-.065-.326.65-.423 1.073-.423.813 0Zm4.88 0c.13.195.358.26.52.163.163-.13.553.032.846.325.488.52.456.553-.423.456-.52-.065-1.106-.228-1.334-.39-.227-.163-.553-.196-.748-.066-.162.098-.325.065-.325-.13 0-.293.488-.586 1.041-.65.13-.033.325.13.423.292Zm-18.38.13c0 .098-.13.26-.326.358-.163.098-.325.033-.325-.13 0-.195.162-.358.325-.358.195 0 .325.065.325.13Zm-27.165.52c.098.164.032.326-.13.326-.195 0-.358-.162-.358-.325 0-.195.065-.325.13-.325.098 0 .26.13.358.325Zm14.086 1.237c.326.423.39.423.39.033 0-.326.066-.358.261-.066.13.196.748.358 1.366.293.749-.032 1.334.13 1.692.52.553.554.52.554-.488.359-.586-.098-1.106-.326-1.204-.456-.097-.13-.39-.13-.618.033-.26.13-.683.195-.943.097-.26-.097-.586 0-.781.26-.26.359-.293.326-.13-.13.13-.357 0-.553-.358-.553-.293 0-.455.098-.325.196.26.26-.39.91-1.172 1.203-.683.26-.552 1.106.13.911.26-.097 1.042-.13 1.757-.13.716.033 1.139-.032.911-.097-.618-.26-.097-1.074.586-.944.325.065.618-.065.618-.26 0-.228.228-.098.488.228.358.455.488.52.488.162 0-.39.065-.39.293.033.39.585.13 1.008-.553.91-.293-.064-.52.098-.456.293.033.26-.26.423-.683.423-.423 0-1.04.228-1.399.488-.553.423-.553.456-.032.488.292 0 .553.195.553.456 0 .26.26.52.585.585.358.098.26.195-.358.326-.78.162-.91.097-.78-.423.13-.488.032-.52-.684-.26-1.268.487-1.463.683-1.008.975.716.423.065.749-1.431.684-.749 0-1.172.032-.944.13.52.227.52 1.138-.032.91-.228-.064-.716.196-1.074.586-.488.586-.52.65-.032.293.292-.26.65-.358.748-.293.097.098-.26.488-.781.846-.91.683-3.156.911-2.765.293.097-.163-.033-.456-.26-.618-.326-.228-.196-.26.422-.13.684.162.846.097.716-.26-.098-.26-.423-.554-.716-.619-.325-.097.098-.097.911 0 1.139.13 1.594.033 1.92-.358.26-.292.358-.618.26-.748-.13-.097-.065-.39.13-.65.293-.293.26-.423 0-.423-.325 0-.488.422-.39 1.04.032.358-1.204.326-1.4-.032-.194-.293-1.56-.228-2.114.13-.195.098-.358.39-.358.618 0 .196-.65.651-1.463.976-.814.358-1.464.749-1.464.911 0 .163-.13.228-.293.13-.163-.097-.39.033-.488.326-.098.26-.358.39-.553.26-.228-.13-.293-.098-.163.13.325.553-.358.78-1.139.39-.618-.357-.65-.325-.325.293.488.846.455 1.236-.033.748-.455-.455-1.04-.52-.78-.097.097.162-.13.358-.553.488-.39.097-1.074.488-1.464.878-.423.358-.944.716-1.139.748-1.692.293-2.342 1.074-1.204 1.432.26.098.326 0 .163-.26s-.065-.358.293-.26c.976.195.553.715-.65.845-.782.065-1.107 0-.944-.228.325-.52-1.009-.422-1.432.098-.227.26-.26.52-.13.586.13.097.098.097-.13.065-.228-.065-.488.032-.585.195-.326.52-.911.358-.716-.163.13-.26.065-.553-.098-.65-.553-.358-.358-.781.488-1.009.456-.097.716-.325.618-.52-.097-.163.033-.553.326-.879.292-.325.52-.716.488-.878-.13-.748.097-1.041.845-1.236.456-.13.781-.326.684-.456-.163-.26.748-1.269 2.472-2.765.488-.423.813-.846.716-.944-.098-.097.39-.292 1.073-.422 1.334-.228 2.375-.976 2.375-1.692 0-.228.293-.423.618-.423.749 0 1.204-.976.619-1.366-.293-.163-.196-.26.292-.26.39 0 .976-.098 1.302-.196.52-.195.52-.162-.066.358-.39.325-.13.228.619-.195.715-.423 1.17-.553 1.04-.358-.195.325 0 .358.684.195 1.236-.293 2.18-.976 1.756-1.269a.713.713 0 0 1-.357-.585c0-.195.195-.098.423.228.39.52.488.553 1.756.032.716-.293 1.53-.488 1.757-.455.26.032.878-.033 1.431-.195.846-.228.879-.293.326-.554-.423-.162-.26-.195.488-.065.618.098 1.334.423 1.561.716Zm-17.6-.195c-.065.228-.325.39-.52.325-.293-.065-2.96 2.408-2.96 2.733 0 .065.357-.065.813-.26.455-.195.748-.423.683-.52-.228-.196.65-1.042 1.073-1.042.196 0 .358.26.358.553 0 .456-.065.488-.292.13-.358-.553-.619-.097-.52.879.032.553-.066.683-.554.52-.325-.097-.586-.032-.586.163a.361.361 0 0 1-.357.358c-.196 0-.553.227-.814.488-.293.26-.423.488-.293.488.098 0 .13.13 0 .325s-.488.195-1.008-.033c-.683-.227-.813-.227-.683.13.13.358-.098.424-.976.358-1.334-.097-1.887-.455-.683-.455.52 0 .943-.293 1.236-.78.423-.847 1.496-.814 1.171.032-.13.358-.032.358.456.097.813-.423.813-.455-.13-1.106-.749-.455-.846-.455-1.302 0-.293.26-.52.358-.52.163 0-.195-.26-.358-.553-.358-.488 0-.521.065-.098.325.358.228.26.293-.423.26-.846-.064-.878-.13-.325-.52.325-.228.846-.748 1.17-1.138.326-.39.489-.521.359-.26-.163.357-.065.422.455.292.39-.13.65-.065.52.098-.227.39.782.39 1.27-.033.227-.163.878-.683 1.463-1.171.553-.455.976-.976.846-1.139-.097-.162.293-.292.846-.292.683 0 .976.13.878.39Zm22.838 1.04c-.293.261-.325.261-.13-.097s.065-.423-.618-.227c-.65.162-.846.097-.846-.293 0-.293.098-.456.26-.39.13.097.52.032.879-.098.78-.293 1.106.488.455 1.106Zm32.89-1.3c0 .097-.13.26-.325.358-.163.097-.326.032-.326-.13 0-.196.163-.358.326-.358.195 0 .325.065.325.13Zm-51.076.488c0 .162-.195.455-.455.65-.358.293-.52.293-.683 0-.13-.195-.033-.488.195-.65.586-.358.943-.358.943 0Zm2.115.325c.098.163.065.39-.098.488-.162.098-.292-.033-.292-.293 0-.553.097-.618.39-.195Zm22.122.032c-.098.163-.325.326-.52.326-.163 0-.293-.163-.293-.326 0-.195.227-.325.52-.325.26 0 .39.13.293.325Zm-25.863.13c0 .098-.13.26-.325.358-.163.098-.326.033-.326-.13 0-.195.163-.358.326-.358.195 0 .325.066.325.13Zm-7.808.521c0 .163-.13.325-.325.325a.35.35 0 0 1-.325-.325c0-.195.162-.325.325-.325.195 0 .325.13.325.325Zm66.496.716c.813.13 1.074.91.325.91-.748 0-1.757-.91-1.757-1.56 0-.456.066-.456.423 0 .196.292.684.585 1.009.65Zm-57.387-.358c0 .097-.293.293-.65.39-.619.163-.879-.097-.488-.488.26-.227 1.138-.195 1.138.098Zm-3.416 1.204c-.227.26-1.138-.423-1.138-.846s.097-.39.618.13c.325.325.553.65.52.716Zm2.798.325c-.228.065-.586-.033-.813-.228-.325-.26-.553-.227-.846.13-.228.26-.65.488-.944.488-.325 0-.162-.227.456-.618.78-.455 1.139-.52 1.757-.227.423.162.585.39.39.455Zm52.019.943c0 .098-.228.065-.52-.032-.358-.13-.489-.065-.358.26.26.65-.098.879-.781.488-.846-.423-.78-.878.13-1.008.748-.13 1.529.032 1.529.292Zm-62.624.423c-.098.163-.456.326-.749.293-.455 0-.423-.065.098-.293.586-.238.802-.238.65 0Zm67.016 0c.097.163-.033.326-.326.326-.292 0-.422-.163-.325-.326.098-.195.26-.325.325-.325.066 0 .228.13.326.325Zm-62.625.65c0 .164-.065.326-.13.326-.097 0-.26-.162-.358-.325-.097-.195-.032-.325.13-.325.196 0 .358.13.358.325Zm-6.376.294c.098.162-.195.26-.65.26-.619 0-.716-.065-.423-.26.585-.358.845-.358 1.073 0Zm2.896.715c.683-.162 1.138-.162 1.008 0-.098.163-.358.293-.586.293-.227 0-.813.358-1.3.814-.489.455-1.074.813-1.335.813-.26 0-.553.13-.65.325a.766.766 0 0 1-.586.326c-.195 0-.065-.196.293-.456.325-.26.52-.553.423-.683-.13-.098.097-.553.488-.976.358-.423.748-.65.846-.488.097.163.715.163 1.399.032Zm27.066-.032c.098.163 0 .228-.26.13-.26-.097-.586-.032-.716.163-.097.195-.39.358-.585.358-.228 0-.098-.228.227-.488.749-.586 1.074-.618 1.334-.163Zm-22.707.195c-.098.098-.39.13-.618.033-.26-.098-.163-.196.195-.196.358-.032.553.066.423.163Zm63.535.748c0 .39-.91.716-1.106.39-.098-.162-.098-.357.033-.487.292-.293 1.073-.228 1.073.097Zm-72.221.358c.26.163.358.39.26.52-.13.098-.455-.032-.748-.325-.586-.553-.293-.683.488-.195ZM9.07 71.93c0 .097-.13.26-.325.358-.163.097-.325.032-.325-.13 0-.196.162-.358.325-.358.195 0 .325.065.325.13Zm27.23.065c-.098.097-.39.13-.618.032-.26-.097-.163-.195.195-.195.358-.032.553.065.423.163Zm-7.873.813c.13.195.553.455.944.618.553.228.585.293.097.293-.325.032-.488.162-.39.358.162.293-.033.39-.683.293a.554.554 0 0 0-.423.26c-.098.162-.619.455-1.107.683-.52.228-1.008.716-1.106 1.073-.13.456-.357.586-.715.423-.65-.26-2.31-.52-1.724-.26.195.098.39.456.39.814 0 .553.52.78 1.399.65.13 0 .227.098.227.26 0 .52-1.43.684-1.951.196-.52-.456-1.952-.326-1.952.162 0 .163-.326.39-.716.52-.423.13-.911.456-1.106.716-.26.358-.423.39-.586.13-.13-.227-.065-.39.163-.39.325 0 .325-.097.032-.39-.715-.716-.422-1.399.944-2.147 1.464-.846 2.342-1.106 3.48-1.074.424.033 1.14-.26 1.595-.618.455-.358 1.04-.65 1.269-.65.423 0 .585-.424.488-1.074-.033-.163.097-.195.292-.065.163.097.586.032.879-.13.52-.293.52-.326-.13-.358-.423 0-.749-.163-.749-.325 0-.424.879-.424 1.14.032Zm-19.194.878c-.098.098-.358 0-.585-.227-.293-.326-.26-.358.195-.163.325.098.488.293.39.39Zm16.754-.26c0 .163-.13.325-.293.325-.195 0-.423-.162-.52-.325-.098-.195.032-.325.293-.325.292 0 .52.13.52.325Zm-13.989.456c0 .097-.13.26-.325.357-.163.098-.325.033-.325-.13 0-.195.162-.358.325-.358.195 0 .325.066.325.13Zm61.16 1.821c-.26.163-.715.326-.975.326-.423 0-.423-.033 0-.326.26-.162.715-.325.976-.325.423 0 .423.033 0 .325Zm2.083.39c-.098.13-.39.261-.65.261-.261 0-.456-.13-.456-.26s.292-.26.618-.26c.358 0 .553.13.488.26Zm-61.616.066c0 .358-.618.488-.813.195-.098-.163.032-.325.292-.325.293 0 .52.065.52.13Zm16.754.195c-.098.163-.39.325-.586.325-.227 0-.195-.13.098-.325.618-.39.748-.39.488 0Zm1.139 1.171c0 .065-.228.13-.488.13s-.488-.13-.488-.325c0-.163.227-.228.488-.13.26.13.488.26.488.325Zm39.689-.39c0 .065-.293.195-.65.293-.359.097-.651.032-.651-.13 0-.163.292-.293.65-.293.358 0 .65.065.65.13Zm3.578.195c0 .163-.13.325-.325.325a.35.35 0 0 1-.325-.325c0-.195.162-.325.325-.325.195 0 .325.13.325.325Zm-48.245.195c-.097.098-.39.13-.618.033-.26-.098-.163-.195.195-.195.358-.033.553.065.423.162Zm-3.48.911c0 .065-.229.228-.521.325-.26.098-.39.065-.293-.13.195-.325.813-.455.813-.195Zm48.7.39c-.098.098-.39.13-.618.033-.26-.098-.163-.195.195-.195.358-.033.553.065.423.162Zm1.399-.065c0 .065-.228.228-.52.326-.261.097-.391.065-.293-.13.195-.326.813-.456.813-.196Zm4.392.846c-.098.163-.39.228-.651.098-.683-.228-.618-.423.195-.423.358 0 .586.13.456.325Zm-59.697.456c1.106.39 1.106.423.423.78-.488.26-.78.293-.91.066-.131-.196-.326-.26-.489-.163-.13.097-.325-.13-.423-.488-.195-.748-.162-.748 1.4-.195Zm53.353.032c.325.39.325.488-.13.488-.293 0-.52-.228-.52-.488s.064-.488.13-.488c.064 0 .292.228.52.488Zm2.765.163c.098.195-.13.325-.553.325-.585 0-.65-.065-.26-.325.618-.39.585-.39.813 0Zm-58.395 1.008c0 .195-.13.26-.293.13-.163-.097-.39-.032-.52.13-.098.196-.39.26-.651.163-.26-.13-.39-.325-.293-.488.098-.162.293-.227.456-.13.162.098.357.033.488-.162.227-.39.813-.13.813.357Zm10.963-.488c-.097.098-.39.13-.618.033-.26-.098-.163-.195.195-.195.358-.033.553.065.423.162Zm-9.597.911c.098-.065.26.065.358.358.163.39 0 .456-.846.39-.813-.032-1.04.066-1.008.488.043.478-.174.434-.65-.13-.424-.488-.456-.618-.131-.488.26.098.683-.097.91-.455.294-.39.586-.488.814-.293.228.195.456.228.553.13Zm7.515-.227c.098.162-.26.26-.813.292-.65.033-.814-.065-.52-.227.52-.358 1.138-.358 1.333-.065Zm44.96.553c.357.097.032.13-.716.065-1.236-.13-1.399-.065-1.432.553 0 .39-.097.553-.162.358-.098-.26-.618-.293-1.692-.066-.846.13-1.692.196-1.92.098-.227-.065-.422.098-.422.358s.163.39.325.293c.195-.098.325-.033.325.162 0 .553-1.366.033-2.212-.845-.423-.456-.91-.684-1.106-.586-.228.13-.26.065-.13-.13.163-.26.488-.26 1.041-.065.456.195 1.139.325 1.53.293.682 0 .682-.033.064-.326-.52-.228-.423-.26.325-.097 2.375.488 3.351.423 3.514-.228.13-.52.325-.553 1.106-.293.488.163 1.204.358 1.562.456Zm30.58-.456c.097.163.032.325-.13.325-.195 0-.358-.162-.358-.325 0-.195.065-.325.13-.325.097 0 .26.13.358.325Zm-28.629.325c.098.196-.032.228-.292.13-.586-.227-.683-.455-.228-.455.195 0 .423.13.52.325Zm15.226.196c1.3-.098 1.659.26.52.553-.878.227-2.245-.26-2.245-.814 0-.325.065-.325.26-.032.13.228.781.325 1.465.293Zm5.595-.195c-.097.195-.585.26-1.04.195-1.302-.26-1.302-.52.032-.52.715 0 1.138.13 1.008.325Zm4.717 0c0 .162-.065.325-.13.325-.097 0-.26-.163-.358-.326-.097-.195-.032-.325.13-.325.196 0 .358.13.358.325Zm-93.042.325c0 .162-.065.325-.13.325-.097 0-.26-.163-.358-.325-.097-.195-.032-.326.13-.326.196 0 .358.13.358.326Zm9.76 0c-.423.293-.423.325 0 .325s.423.065 0 .325c-.39.228-.358.39.163 1.041.433.5.433.586 0 .26-.358-.26-.846-.748-1.074-1.073-.228-.293-.683-.585-.976-.585-.553-.033 1.009-.521 1.887-.586.423-.033.423 0 0 .293Zm7.06-.13c-.098.097-.391.13-.619.032-.26-.097-.162-.195.196-.195.357-.033.552.065.422.163Zm52.05.325c-.097.098-.39.13-.617.032-.26-.097-.163-.195.195-.195.358-.032.553.065.423.163Zm8.687.065c.097.163-.033.293-.293.293s-.488-.13-.488-.293c0-.13.13-.26.293-.26.195 0 .39.13.488.26Zm1.952.195c-.228.586.91 1.236 1.724.976.488-.162.488-.13.098.163-.39.293-.358.358.26.358.39 0 .716-.163.716-.326 0-.39 2.017-.292 2.342.13.098.163.813.326 1.529.326 1.496 0 1.529.032.878.716-.325.325-.52.325-.585.065-.163-.423-2.212-.618-2.212-.228 0 .163-.196.195-.423.098-.26-.098-1.204.13-2.147.52-.911.358-1.855.65-2.082.65-.586-.032 1.138-.943 1.789-.975.293 0 .65-.163.78-.39.163-.261-.325-.326-1.919-.163-1.269.13-2.245.065-2.342-.098-.13-.195-.814-.26-1.562-.163l-1.366.163 1.236-.488c.879-.325 1.431-.39 1.855-.163.325.196.878.326 1.203.293.39 0 .293-.162-.39-.455-.52-.26-.749-.488-.488-.488.39-.033.39-.098.032-.228-.358-.163-.358-.228 0-.455.684-.423 1.27-.358 1.074.162Zm10.345 0c.098-.097.26.065.358.358.293.683-.195.618-1.106-.195-.716-.586-.716-.618-.098-.325.39.195.781.26.846.162Zm-24.074.52c-.065.261.098.326.423.228.26-.13.488-.065.488.098 0 .195-.293.325-.65.325-.358 0-.651-.162-.651-.325 0-.195-.293-.325-.683-.325-.358 0-.586-.13-.488-.26.26-.423 1.659-.196 1.561.26Zm9.89-.162c-.325.26-.748.39-.91.293-.456-.293.064-.78.813-.78.455.02.487.183.097.487Zm11.842.163c.358.358.943.65 1.269.65.357 0 .715.13.813.26.195.326-1.139.293-1.692-.032-.228-.163-.715-.163-1.073-.065-.456.163-.618.098-.488-.13.162-.228.032-.293-.26-.163-.586.228-.619.098-.326-.65.26-.716.976-.651 1.757.13Zm-71.018-.13c-.098.097-.39.13-.618.032-.26-.097-.163-.195.195-.195.358-.033.553.065.423.163Zm78.533.227c-.195.26-.26.52-.163.618.065.098-.228.163-.683.163-1.074 0-1.041-.423.097-.813.781-.304 1.03-.293.749.032Zm-86.894.228c0 .163-.065.325-.13.325-.097 0-.26-.162-.358-.325-.097-.195-.032-.325.13-.325.196 0 .358.13.358.325Zm53.841.65c-.065.13-.52.163-.976.098-.423-.097-.748-.292-.65-.423.065-.13.52-.162.975-.097.423.097.749.293.651.423Zm2.57-.194c-.195.488-1.757 1.3-2.017 1.008-.097-.098 0-.163.228-.163.26 0 .358-.195.227-.52-.13-.39-.032-.456.423-.293.358.098.716.033.846-.163.293-.488.488-.39.293.13Zm-55.76.195c0 .162-.228.325-.52.325-.26 0-.39-.163-.293-.325a.618.618 0 0 1 .52-.326c.163 0 .293.13.293.326Zm82.827.097c.26-.097.455 0 .455.196 0 .195.228.357.488.357s.65.293.879.618c.292.456.52.553.78.326.26-.228.456-.195.618.032.098.163.066.326-.13.326-.162 0-.52.097-.813.195-.358.13-.52.032-.52-.326 0-.26-.358-.585-.781-.715-.911-.228-1.594.065-1.334.553.13.163-.033.293-.325.293-.293 0-.456-.13-.326-.293a.367.367 0 0 0-.13-.488c-.163-.13-.26-.456-.195-.78.065-.294.13-.619.13-.717.033-.065.195.033.39.228.196.195.586.293.814.195Zm1.431-.097c0 .162-.065.325-.13.325-.097 0-.26-.163-.358-.325-.097-.195-.032-.326.13-.326.196 0 .358.13.358.326Zm3.253.032c0 .195.293.26.749.13.553-.195.618-.162.358.163-.228.228-.684.293-1.074.163-.683-.195-.943-.814-.358-.814.195 0 .325.163.325.358Zm-90.764.293c0 .163-.13.325-.326.325a.35.35 0 0 1-.325-.325c0-.195.163-.325.325-.325.196 0 .326.13.326.325Zm67.992.098c0 .162.13.195.325.065.163-.098.586.097.976.488.618.618.814.585.65-.163-.032-.163.261-.032.651.325l.716.651-1.008.098c-.586.065-1.302-.098-1.594-.326-.456-.358-.488-.358-.293.163.162.423.097.553-.163.455-.227-.065-.39-.325-.325-.553.065-.26-.098-.325-.423-.195-.293.098-.65.195-.748.195-.13 0 0 .163.26.326.39.227.358.292-.195.26-.488-.065-.65-.228-.52-.683.064-.326.357-.52.585-.423.228.097.52.032.618-.13.13-.195-.098-.326-.456-.326-.39 0-.683-.13-.683-.292 0-.163.358-.26.814-.228.455 0 .813.163.813.293Zm-73.685.195c.097.163.032.39-.163.52-.163.098-.325.065-.325-.13 0-.162-.26-.39-.553-.455-.456-.13-.423-.163.13-.195.39 0 .78.097.91.26Zm4.391.195c-.227.26-.292.488-.13.488.163 0 .065.163-.195.325-.39.228-.26.358.586.52 1.301.261 1.691.782.585.782-.455 0-.846-.13-.846-.293 0-.163-.39-.39-.878-.52l-.878-.196.943-.813c1.041-.879 1.432-1.041.813-.293Zm2.766.488c-.098.163-.423.195-.683.098-.39-.13-.423-.26-.098-.456.488-.293 1.04-.065.78.358Zm3.74-.423c0 .033-.26.228-.585.39-.423.228-.618.196-.618-.065 0-.227.293-.422.618-.422.326 0 .586.032.586.097Zm42.52.293c-.097.098-.39.13-.618.032-.26-.097-.162-.195.195-.195.358-.032.553.065.423.163Zm25.896.163c-.26.26-.52.26-.976 0-.52-.293-.455-.326.39-.358.684 0 .846.097.586.358Zm4.717.13c.13.292.586.553.976.585.423.033.586.163.423.326-.163.162-.553.13-.91-.066-.847-.422-1.595-1.333-1.14-1.333.196 0 .489.227.651.488Zm2.343-.195c0 .162.292.357.65.455.358.097.553.032.456-.13-.098-.163.065-.39.357-.52.326-.098.684 0 .814.227.162.26.293.293.455.032.13-.195.39-.357.553-.357.195 0 .26.13.163.293-.098.162.13.715.52 1.203l.716.944-.846-.749c-.715-.65-1.073-.715-2.407-.553-1.301.163-1.757.065-2.407-.455l-.814-.683h.911c.488 0 .879.13.879.293Zm-30.093.715c.488.456-.227.326-1.138-.228l-.814-.487.814.227c.455.098.943.326 1.138.488Zm-54.166-.032c-.293.195-.325.325-.097.325.195 0 .357.293.325.618 0 .358-.163.553-.293.488-.163-.097-.195-.293-.097-.455.097-.163.032-.358-.163-.488-.423-.26-.098-.814.423-.814.228 0 .195.13-.098.326Zm75.865.065c-.293.293-.293.488.033.846.325.422.292.455-.358.097-.586-.325-.65-.455-.326-.846.228-.26.554-.455.749-.488.162 0 .13.163-.098.39Zm21.081.13c0 .065-.293.13-.651.13-.357 0-.65-.13-.65-.293 0-.162.293-.227.65-.13.358.098.651.228.651.293ZM3.54 87.12c0 .163-.293.293-.65.293-.716 0-.749-.033-.456-.78.163-.424.293-.456.65-.163.26.195.456.487.456.65Zm63.763-.878c0 .097-.13.26-.325.358-.163.097-.326.032-.326-.13 0-.196.163-.358.326-.358.195 0 .325.065.325.13Zm-62.3.52c.098.195-.032.228-.292.13-.585-.227-.683-.455-.228-.455.196 0 .423.13.52.325Zm74.012 0c.325.195.162.293-.586.26-.716-.032-.944-.13-.65-.292.52-.358.65-.358 1.236.032Zm23.423.326c0 .162-.065.325-.13.325-.098 0-.261-.163-.358-.325-.098-.196-.033-.326.13-.326.195 0 .358.13.358.326Zm-94.864.26c.098.162-.033.293-.293.293s-.39-.13-.293-.293c.098-.13.228-.26.293-.26.065 0 .195.13.293.26Zm-2.407.228c0 .227-.976.422-1.107.227-.097-.13.13-.293.488-.293.326-.032.619 0 .619.066Zm60.021.162c.098.163.033.326-.13.326-.195 0-.358-.163-.358-.326 0-.195.066-.325.13-.325.098 0 .26.13.358.325Zm32.142.098c.13-.098.228.097.228.488 0 .39-.13.715-.325.715a.35.35 0 0 1-.326-.325.326.326 0 0 0-.325-.325c-.228 0-.228.228 0 .683.325.553.455.586.878.26.423-.358.553-.325.944.163.227.358.65.52.91.423.293-.13.586-.065.684.097.097.13-.033.358-.228.423-.228.098.033.196.586.196.911.032.976.13.976 1.236.032.683-.033.976-.131.65-.097-.455-.325-.585-.878-.487-.553.13-.683.032-.585-.423.13-.488 0-.586-.879-.456-.813.098-.943.033-.65-.325.487-.586-.098-.944-1.14-.683-.585.162-.812.032-.975-.456-.228-.716-.423-.78-1.106-.358-.553.358-.195.944.748 1.334.52.228.553.293.13.293-.293.033-.65-.13-.748-.293-.13-.195-.358-.26-.52-.13a.367.367 0 0 0-.13.488c.13.163-.033.293-.294.293-.325 0-.422-.195-.325-.488.13-.26.358-.488.52-.488.196 0 .163-.228-.097-.52-.325-.424-.325-.554 0-.782.358-.195.358-.26 0-.39-.26-.097-.358-.293-.228-.423.13-.13.488-.065.814.195.358.293.455.326.292.033-.162-.26 0-.39.423-.39.39 0 .684-.163.684-.358 0-.26.13-.293.422 0 .26.195.554.26.651.13Zm4.327.293c-.033.585-.228.748-1.009.78-.52 0-1.236.13-1.529.26-.422.196-.585.13-.585-.292 0-.325-.163-.456-.39-.293-.228.13-.326.098-.163-.032.13-.163.553-.326.976-.358 1.626-.228 2.179-.358 2.375-.553.357-.358.39-.293.325.488Zm-42.747.032c-.488.228-.846.228-1.074 0-.195-.195.033-.325.748-.325.976 0 .976.032.326.325Zm33.052-.032c.26.325.13.422-.455.455-.65.065-.748-.032-.423-.39.304-.369.596-.39.878-.065Zm-36.175.813c-.196.195-1.172-.293-1.172-.586 0-.162.293-.13.651.098.325.228.586.455.52.488Zm17.21-.553c-.099.163-.391.325-.587.325-.227 0-.195-.13.098-.325.618-.39.748-.39.488 0Zm31.132.716c.358.358.846.553 1.204.422.716-.227 1.562.619.976.976-.26.196-.228.326.065.553.358.26.358.293-.032.163-.261-.065-.456-.293-.423-.52.065-.196-.261-.423-.684-.553-.455-.098-1.041-.456-1.366-.814-.358-.39-.813-.553-1.236-.455-.39.097-.488.065-.26-.033.195-.097.325-.325.227-.488-.325-.488.879.098 1.529.749Zm-40.73-.196c0 .066-.293.13-.683.13-.358 0-.586-.13-.456-.325.163-.26 1.14-.097 1.14.195Zm-54.751 0c-.098.098-.39.13-.619.033-.26-.098-.162-.195.196-.195.357-.033.553.065.423.162Zm36.956.456c.13.553.065.585-.455.293-.358-.163-.553-.456-.456-.651.326-.488.716-.325.911.358Zm5.433-.293c.358.26.39.39.065.52-.195.066-.293.293-.195.456.13.195-.358.293-1.236.195-1.464-.162-3.026.228-2.733.683.065.13-.618.26-1.594.293-1.367.033-1.692-.065-1.562-.423.098-.26.586-.455 1.074-.455.52 0 1.04-.163 1.138-.326.13-.195.488-.26.781-.162.748.228 4.23-.65 3.579-.911-.228-.098-.293-.195-.13-.195.195 0 .553.13.813.325Zm-3.253.358c0 .325-.586.293-1.464-.065-.52-.195-.456-.26.423-.228.553 0 1.04.13 1.04.293Zm45.35-.195c.292.097.52.39.52.65 0 .553-.846.26-1.106-.39-.195-.52-.13-.553.585-.26Zm9.206.91c-.097.228.033.424.293.424.293 0 .423-.196.293-.488-.163-.423-.098-.423.358-.033.488.39.455.455-.163.748-.488.196-.944.163-1.497-.13-.748-.39-.748-.455-.227-.846.618-.455 1.171-.26.943.326Zm-17.112.293c-.325.293-.358.26-.162-.195.097-.325.292-.488.39-.39.097.097 0 .358-.228.585Zm2.05-.39c-.196.358-1.009.39-1.204.033-.098-.13.195-.26.618-.26.423-.033.683.064.586.227Zm-82.6.618c-.097.163 0 .326.228.358.586.032-1.04.553-1.854.586-.455 0-.325-.163.488-.618 1.334-.749 1.399-.749 1.139-.326Zm69.034.195c-.098.098-.39.13-.618.033-.26-.098-.163-.195.195-.195.358-.033.553.065.423.162Zm3.025.13c0 .163-.13.326-.292.326-.196 0-.423-.163-.521-.325-.098-.196.032-.326.293-.326.293 0 .52.13.52.326Zm20.723.163c0 .26-.13.488-.26.488-.358 0-.65-.52-.39-.78.358-.359.65-.228.65.292Zm7.58 0c.261-.162.358-.097.261.195-.098.26-.358.456-.619.456-.227 0-.488.26-.553.553-.097.455.098.52 1.139.39 1.171-.13 1.204-.13.26.195-.52.163-1.236.228-1.594.13-.39-.13-.52-.064-.39.163.13.195 0 .358-.293.358s-.423.163-.325.358c.13.195.423.26.683.162.228-.097.52-.032.618.13.293.489-.878.391-1.919-.162-.749-.39-1.009-.423-1.204-.098a.44.44 0 0 0 .13.651c.228.163.033.26-.521.26-.487 0-.975.228-1.073.488-.325.846-1.106.553-1.106-.423 0-.488.13-.715.26-.52.325.488 1.301.097 2.505-1.074.553-.488 1.432-1.073 1.952-1.236.683-.26.943-.553.878-.976-.065-.488-.032-.553.196-.195.195.26.488.325.715.195Zm-56.15.325c-.13.26-.586.488-1.074.488l-.846-.032.814-.456c1.04-.585 1.334-.585 1.106 0Zm47.367.326c.422.39.78.423 1.366.195.585-.228.813-.195.813.098 0 .227-.52.422-1.269.422-.91.066-1.3-.097-1.561-.585-.423-.748-.098-.813.65-.13Zm-54.004.228c0-.196.195-.293.423-.196.618.228.553 1.139-.065 1.041-.293-.032-.846.195-1.236.553-1.009.846-2.115.911-1.985.066.065-.358.358-.684.684-.749.488-.065.52 0 .162.423-.325.423-.293.488.228.358.358-.065.618-.325.553-.586-.065-.227 0-.65.098-.91.13-.358.26-.39.65-.066.326.26.488.293.488.066Zm2.375.13c-.13.422-.846.358-.976-.098-.065-.195.13-.325.456-.293.325.065.553.228.52.39Zm24.952-.196c0 .163-.065.326-.13.326-.097 0-.26-.163-.358-.326-.097-.195-.032-.325.13-.325.196 0 .358.13.358.325Zm25.18-.13c.293.098.423.326.325.488-.26.456-.683.358-.91-.195-.196-.553-.13-.585.585-.293Zm.683 1.106c-.097.163-.39.326-.585.326-.228 0-.196-.13.097-.326.618-.39.749-.39.488 0Zm12.102-.13c-.097.098-.39.13-.618.033-.26-.098-.163-.195.195-.195.358-.033.553.065.423.162Zm-1.203.781c0 .195.357.488.78.65.521.196.781.521.781 1.074s-.163.781-.455.65a.411.411 0 0 1-.261-.552c.098-.26-.292-.814-.845-1.302-.684-.552-.846-.845-.521-.845.293 0 .521.162.521.325Zm-67.147.813c.13.26.325.423.456.326.13-.098.357.065.455.358.098.26.358.39.553.26.228-.13.293-.098.195.13-.26.358-1.431.163-1.724-.293-.098-.162-.325-.293-.488-.293-.195 0-.228.163-.097.39.162.261 0 .293-.456.196-.423-.13-.716-.033-.716.163 0 .195-.097.227-.195.13-.227-.228 1.171-1.855 1.594-1.855.13 0 .326.228.423.488Zm70.4 1.139c.423.26.423.325-.065.325-.293 0-.651-.162-.749-.325-.26-.423.163-.423.814 0Zm-67.83.65c.098.196-.032.228-.293.13-.585-.227-.683-.455-.227-.455.195 0 .423.13.52.326Zm-1.138.326c0 .163-.163.325-.358.325-.163 0-.228-.162-.13-.325.097-.195.26-.325.357-.325.066 0 .13.13.13.325Zm-3.579.13c0 .065-.228.228-.52.325-.26.098-.39.065-.293-.13.195-.325.813-.455.813-.195Zm1.627.26c0 .13-.195.26-.456.26-.26 0-.553-.13-.65-.26-.066-.13.13-.26.488-.26.325 0 .618.13.618.26Zm-4.978.13c-.097.098-.39.13-.618.033-.26-.098-.163-.195.195-.195.358-.033.553.065.423.162Zm71.148 4.685c.195 0 .553-.163.748-.358.456-.455 1.106-.097.879.456-.13.423-2.408.553-2.408.13 0-.13.033-.488.033-.813.032-.521.065-.521.195 0 .065.325.325.585.553.585Zm.521-.651a.327.327 0 0 1-.326.326c-.162 0-.325-.163-.325-.326 0-.195.163-.325.325-.325.195 0 .326.13.326.325Zm2.602 1.107c0 .097-.13.26-.325.357-.163.098-.325.033-.325-.13 0-.195.162-.358.325-.358.195 0 .325.065.325.131Zm-1.757 1.561c0 .325-.032.586-.065.586 0 0-.26-.261-.553-.586-.488-.52-.488-.586.033-.586.325 0 .585.261.585.586Zm-62.982.423c0 .228-.976.423-1.106.228-.097-.13.13-.293.488-.293.325-.033.618 0 .618.065Zm-2.96.846c-.586.358-1.269.358-1.269 0 0-.163.39-.293.846-.293.585 0 .716.098.423.293Zm65.78.39c-.423.423-.846.098-.521-.39.098-.195.358-.26.553-.163.195.13.196.325-.032.553Zm-68.903-.195c-.228.065-.618.065-.814 0-.227-.098-.065-.163.39-.163.456 0 .619.065.424.163Zm13.24-.098c0 .293-.976.456-1.138.196-.13-.196.097-.326.455-.326.39 0 .683.065.683.13Zm58.721.196c.097.195-.033.227-.293.13-.586-.228-.683-.456-.228-.456.195 0 .423.13.521.326Zm-1.562.195c-.097.097-.39.13-.618.032-.26-.097-.163-.195.195-.195.358-.032.553.065.423.163Zm-71.473.455c0 .163-.163.326-.358.326-.162 0-.227-.163-.13-.326.098-.195.26-.325.358-.325.065 0 .13.13.13.325Zm1.139.651c.097.163-.033.325-.326.325-.292 0-.422-.162-.325-.325.098-.195.26-.325.325-.325.066 0 .228.13.326.325Zm5.595.52c-.097.098-.39.131-.618.033-.26-.098-.163-.195.195-.195.358-.033.553.065.423.162Zm-2.505.456c0 .163-.13.325-.293.325-.195 0-.422-.162-.52-.325-.098-.195.032-.325.293-.325.293 0 .52.13.52.325Zm-5.172 2.505c.39.52.39.553-.033.228a4.884 4.884 0 0 0-.976-.553c-.423-.163-.39-.196.033-.196.293-.032.748.228.976.521Z" clip-rule="evenodd"/><path fill="#EDE1D1" fill-rule="evenodd" d="M58.357 7.385c-.098.163-.033.325.13.325.195 0 .358-.162.358-.325 0-.195-.065-.325-.13-.325-.098 0-.26.13-.358.325Zm-37.25 54.003c0 .163-.293.325-.683.325-.358 0-.553.13-.455.326.292.455.52.39 1.464-.326.65-.52.715-.65.26-.65-.326 0-.586.13-.586.325Zm11.777 5.205c.065.26.358.488.618.586.358.097.358.032-.032-.26-.325-.26-.358-.326-.065-.26.813.227.553.747-.423.845-.52.065-1.106.26-1.269.423-.195.163-.618.293-.976.293-.488 0-.553.097-.26.293.228.13.39.455.325.683-.065.228.098.488.358.585.26.065.358 0 .26-.162-.13-.195.195-.52.683-.781.488-.26 1.009-.586 1.14-.78.162-.196.227-.098.097.227-.163.553.097.716.715.488.13-.033.196-.163.163-.325-.065-.13.065-.228.26-.228s.26-.228.163-.52c-.098-.261-.065-.391.098-.294.162.098.39.033.52-.162.098-.163.553-.326 1.009-.326.422 0 .78-.162.78-.357 0-.26-.358-.293-1.04-.13-1.302.26-1.497.26-2.506-.033-.553-.163-.748-.13-.618.195Zm-19.747-.65c.13.195.358.26.52.162.456-.292.358-.488-.227-.488-.26 0-.39.163-.293.326Zm-1.627 4.554c-.098.163-.032.326.13.326.195 0 .358-.163.358-.326 0-.195-.065-.325-.13-.325-.098 0-.26.13-.358.325Zm10.085 6.832c.13.195.358.26.52.163.456-.293.358-.488-.227-.488-.26 0-.39.162-.293.325Zm73.36 7.483c-.293.195-.325.325-.097.325.195 0 .488-.163.585-.325.26-.39.13-.39-.488 0Zm7.515 8.1c-.227.163-.39.456-.325.65.065.196.325.066.553-.292.456-.716.423-.748-.228-.358ZM59.82.52c0 .163.293.228.651.13.358-.097.65-.227.65-.292 0-.065-.292-.13-.65-.13-.358 0-.65.13-.65.293Zm-4.88 1.334c-.39.228-.39.326-.032.326.228 0 .358.195.26.455-.13.325 0 .456.456.423.325-.032.618-.13.65-.228 0-.097.065-.423.13-.748.13-.618-.65-.748-1.464-.228ZM44.205 4.099c0 .195.13.39.26.488.163.098.293-.033.293-.293s-.13-.488-.293-.488c-.13 0-.26.13-.26.293ZM68.149 9.24c-.358.357.195.747 1.04.747.651 0 .749-.097.456-.39-.423-.423-1.236-.618-1.496-.358Zm-49.807 2.732c-.13.195-.163.423-.065.52.227.228.878-.195.878-.585 0-.39-.553-.39-.813.065Zm2.928-.032c-.098.162-.032.325.13.325.195 0 .358-.163.358-.326 0-.195-.065-.325-.13-.325-.098 0-.26.13-.358.325Zm-7.808 6.831c-.586.26-.553.293.26.293.52.032.846-.098.716-.293-.098-.195-.228-.325-.26-.293-.033 0-.359.13-.716.293Zm66.203 3.546c0 .163.293.358.65.455.424.098.651 0 .651-.292 0-.26-.293-.456-.65-.456-.358 0-.651.13-.651.293Zm-.325 1.887c.033.618.52 1.008.944.78.227-.162.325-.455.227-.65-.26-.39-1.17-.488-1.17-.13Zm-1.627 4.489c0 .293.162.488.358.423.195-.065.358-.26.358-.423 0-.163-.163-.358-.358-.423-.196-.065-.358.13-.358.423Zm-8.621 1.79c-.098.195.032.227.292.13.586-.228.684-.456.228-.456a.619.619 0 0 0-.52.326Zm4.294 5.433c-.13.097-.228.488-.228.845 0 .814.423.456.488-.422.066-.716.033-.749-.26-.423Zm-4.522 12.036c.228.098.52.065.618-.032.13-.098-.065-.195-.423-.163-.358 0-.455.098-.195.195Zm-39.949 5.043c0 .358.39.325.976-.065.39-.228.325-.293-.26-.228-.391 0-.716.163-.716.293Zm38.257 9.988c-.13.162.098.227.456.13.748-.196.846-.423.195-.423-.26 0-.553.13-.65.293Zm14.12 8.946c0 .065.227.195.488.325.26.098.488.033.488-.13 0-.195-.228-.325-.488-.325s-.488.065-.488.13Zm-.422 1.203c.227.228.487.326.585.228.097-.097-.065-.293-.39-.39-.456-.195-.488-.163-.196.162Z" clip-rule="evenodd"/><path fill="#EDE1D1" d="M5.166 73.75a.325.325 0 1 0 0-.65.325.325 0 0 0 0 .65Z"/><path fill="#EDE1D1" fill-rule="evenodd" d="M80.543 74.206c-.325.26-.455.52-.325.618.162.097.455-.098.683-.456.455-.715.423-.748-.358-.162Zm.586.52c-.098.163.032.326.325.326.293 0 .423-.163.326-.326-.098-.195-.26-.325-.326-.325-.065 0-.228.13-.325.325Zm-77.914 1.92c-1.27.293-1.074.846.325.846 1.073 0 1.204-.065.878-.488-.195-.26-.358-.488-.39-.52 0 0-.358.065-.813.162Zm89.333 1.301c.162.358.032.39-.586.26-.553-.162-.976-.065-1.236.26-.228.26-.52.39-.683.293-.586-.358-2.212-.423-2.408-.097-.13.162-.032.293.163.293s.293.13.195.26c-.097.163 0 .293.228.293s.618.097.878.162c.26.098.39.098.26.033-.617-.358-.162-.748.586-.553.553.13.944.065 1.139-.228.195-.325.293-.358.293-.065 0 .455.91.553 1.529.163.325-.196.325-.39-.098-.911-.26-.326-.39-.423-.26-.163Zm-88.65.781c-.423.683-.39.683.162.163.326-.326.52-.651.423-.716-.097-.098-.358.163-.585.553Zm63.404-.39c0 .162.163.227.325.13.196-.098.326-.26.326-.358 0-.065-.13-.13-.326-.13-.162 0-.325.162-.325.358Zm15.128-.033c-.097.163-.097.488.033.716.13.195.097.26-.065.162-.195-.097-.52-.065-.781.13-.358.196-.195.293.586.293.585 0 1.008.098.943.228-.228.39 1.464.293 2.115-.097.553-.293.553-.358-.065-.879-.619-.52-.651-.52-.651.033 0 .325-.098.422-.26.195-.39-.618-1.627-1.139-1.855-.781Zm1.302 1.236c-.098.098-.358 0-.586-.227-.293-.326-.26-.358.195-.163.326.098.488.293.39.39Zm-81.721-.846c.098.293 0 .683-.195.878-.26.26-.228.358.13.358.553 0 .748-1.203.228-1.496-.228-.163-.293-.065-.163.26Zm91.642-.097c0 .325.456.488 1.106.39.163-.032.39.098.52.293.13.227.489.26.977.065.748-.293.78-.293.162-.618-.357-.195-.943-.228-1.3-.098-.359.13-.847.098-1.042-.065-.293-.228-.423-.228-.423.033Zm-7.221.26c.195.065.39.358.39.618 0 .293.13.423.326.293.455-.293 0-1.139-.618-1.106-.326 0-.358.065-.098.195Zm-7.092.422c0 .163.13.326.293.326.195 0 .423-.162.52-.325.098-.195-.032-.325-.292-.325-.293 0-.52.13-.52.325Z" clip-rule="evenodd"/><path fill="#EDE1D1" d="M52.012 84.486a.325.325 0 1 0 0-.65.325.325 0 0 0 0 .65Z"/><path fill="#EDE1D1" fill-rule="evenodd" d="M41.667 88.78c-.227.228-.39.293-.39.13 0-.13-.228-.032-.488.26-.26.261-.488.587-.488.717 0 .162.163.097.39-.13.228-.228.586-.39.846-.39.228 0 .65-.229.911-.489.423-.39.423-.488.065-.488-.26 0-.618.163-.846.39ZM79.6 90.57c.228.097.52.065.618-.033.13-.097-.065-.195-.423-.163-.358 0-.455.098-.195.196Zm31.979 7.547c-.26.195-.293.358-.097.488.195.098.455.033.553-.162.292-.456.065-.651-.456-.326Zm-1.138 1.203c-.131.294-.131.619-.033.717.098.097.358 0 .553-.196.293-.292.293-.488.033-.748-.228-.228-.391-.163-.553.228Zm-80.583.359c-.423.52-.39.553.13.13.293-.228.553-.488.553-.553 0-.26-.26-.098-.683.423Zm81.689-.261c0 .163-.228.521-.488.781-.423.423-.423.521.032.683.293.098.391.066.293-.13-.098-.195.032-.423.293-.52.585-.228.715-1.106.195-1.106-.163 0-.325.13-.325.292Zm-81.982 1.464c0 .293.163.521.326.521.195 0 .325-.13.325-.293a.617.617 0 0 0-.325-.52c-.163-.098-.326.032-.326.292Zm1.465-.13c-.098.162-.033.325.13.325.195 0 .357-.163.357-.325 0-.195-.065-.325-.13-.325-.097 0-.26.13-.358.325Zm-1.465 1.302c0 .195-.13.26-.325.162-.163-.097-.325-.032-.325.131 0 .423.325.455.943.065.293-.196.325-.358.065-.488-.195-.13-.358-.065-.358.13Zm82.209.032c.228.228.488.326.586.228.097-.098-.065-.293-.391-.39-.455-.196-.488-.163-.195.162Zm-.227.943c0 .163.162.326.357.326.163 0 .228-.163.13-.326-.097-.195-.26-.325-.357-.325-.065 0-.13.13-.13.325Z" clip-rule="evenodd"/></svg>